<svg xmlns="http://www.w3.org/2000/svg" viewBox="0 0 256 256">
    
    <defs>
      <linearGradient id="potBody" x1="0" y1="0" x2="1" y2="1">
        <stop offset="0%" stop-color="#c97b4a"/>
        <stop offset="100%" stop-color="#8f5334"/>
      </linearGradient>
      <linearGradient id="potLip" x1="0" y1="0" x2="1" y2="1">
        <stop offset="0%" stop-color="#e0a071"/>
        <stop offset="100%" stop-color="#a8623f"/>
      </linearGradient>
      <linearGradient id="soilGrad" x1="0" y1="0" x2="0" y2="1">
        <stop offset="0%" stop-color="#6c4c3b"/>
        <stop offset="100%" stop-color="#4b3025"/>
      </linearGradient>
      <linearGradient id="leafGrad" x1="0" y1="0" x2="0.8" y2="1">
        <stop offset="0%" stop-color="#8ecf7a"/>
        <stop offset="100%" stop-color="#447a42"/>
      </linearGradient>
      <linearGradient id="leafGradDark" x1="0" y1="0" x2="0.8" y2="1">
        <stop offset="0%" stop-color="#6cab67"/>
        <stop offset="100%" stop-color="#2e5b31"/>
      </linearGradient>
      <linearGradient id="stemGrad" x1="0" y1="0" x2="0" y2="1">
        <stop offset="0%" stop-color="#6b8e52"/>
        <stop offset="100%" stop-color="#3d5a31"/>
      </linearGradient>
      <linearGradient id="goldGlow" x1="0" y1="0" x2="1" y2="1">
        <stop offset="0%" stop-color="#fff6c7"/>
        <stop offset="100%" stop-color="#f4c85d"/>
      </linearGradient>
      <filter id="paint" x="-20%" y="-20%" width="140%" height="140%">
        <feTurbulence type="fractalNoise" baseFrequency="0.9" numOctaves="1" seed="7" result="noise"/>
        <feDisplacementMap in="SourceGraphic" in2="noise" scale="0.9" xChannelSelector="R" yChannelSelector="G"/>
      </filter>
      <filter id="softShadow" x="-40%" y="-40%" width="180%" height="180%">
        <feDropShadow dx="0" dy="4" stdDeviation="4" flood-color="#2a2019" flood-opacity="0.18"/>
      </filter>
      <filter id="rareGlow" x="-60%" y="-60%" width="220%" height="220%">
        <feGaussianBlur stdDeviation="6" result="blur"/>
      </filter>
      <radialGradient id="paperVignette" cx="50%" cy="35%" r="90%">
        <stop offset="0%" stop-color="#ffffff" stop-opacity="0.05"/>
        <stop offset="100%" stop-color="#9bb39a" stop-opacity="0.08"/>
      </radialGradient>
      
    </defs>
    
    
    
    <g opacity="0.45">
      <ellipse cx="128" cy="126" rx="62" ry="76" fill="url(#goldGlow)" filter="url(#rareGlow)"/>
    </g>
    

    <g filter="url(#softShadow)">
      <ellipse cx="128" cy="232" rx="48" ry="10" fill="#2b241f" opacity="0.12"/>
      <path d="M82 185 C88 178, 168 178, 174 185 L166 228 C165 234, 91 234, 90 228 Z" fill="url(#potBody)" stroke="#7a4730" stroke-width="2"/>
      <ellipse cx="128" cy="185" rx="47" ry="10" fill="url(#potLip)" stroke="#8c5437" stroke-width="2"/>
      <ellipse cx="128" cy="188" rx="39" ry="6.8" fill="url(#soilGrad)" opacity="0.96"/>
      <path d="M94 189 C107 185, 119 193, 130 189 C142 185, 152 191, 163 188" stroke="#7a5c4b" stroke-width="1.2" opacity="0.45" fill="none"/>
    </g>
    
<path d="M128 188 C102 170, 88 154, 92 128 C99 94, 124 66, 158 47" stroke="url(#stemGrad)" stroke-width="4.8" fill="none" stroke-linecap="round"/>
<path d="M126 188 C144 173, 165 161, 183 132 C197 109, 198 82, 188 58" stroke="url(#stemGrad)" stroke-width="4.4" fill="none" stroke-linecap="round"/>

    <g transform="translate(96 170) rotate(-68)" opacity="1.0" filter="url(#paint)">
      <path d="M 0 0 C 9.9 -5.3, 11.7 -22.8, 0 -24.0 C -11.7 -22.8, -9.9 -5.3, 0 0 Z" fill="url(#leafGradDark)" stroke="#2d502f" stroke-width="2"/>
      <path d="M 0 0 L 0 -22.1" stroke="#d9f0cd" stroke-opacity="0.5" stroke-width="1.5" />
    </g>
    

    <g transform="translate(93 149) rotate(-80)" opacity="1.0" filter="url(#paint)">
      <path d="M 0 0 C 9.9 -5.3, 11.7 -22.8, 0 -24.0 C -11.7 -22.8, -9.9 -5.3, 0 0 Z" fill="url(#leafGradDark)" stroke="#2d502f" stroke-width="2"/>
      <path d="M 0 0 L 0 -22.1" stroke="#d9f0cd" stroke-opacity="0.5" stroke-width="1.5" />
    </g>
    

    <g transform="translate(106 124) rotate(-42)" opacity="1.0" filter="url(#paint)">
      <path d="M 0 0 C 9.9 -5.3, 11.7 -22.8, 0 -24.0 C -11.7 -22.8, -9.9 -5.3, 0 0 Z" fill="url(#leafGradDark)" stroke="#2d502f" stroke-width="2"/>
      <path d="M 0 0 L 0 -22.1" stroke="#d9f0cd" stroke-opacity="0.5" stroke-width="1.5" />
    </g>
    

    <g transform="translate(127 98) rotate(5)" opacity="1.0" filter="url(#paint)">
      <path d="M 0 0 C 9.9 -5.3, 11.7 -22.8, 0 -24.0 C -11.7 -22.8, -9.9 -5.3, 0 0 Z" fill="url(#leafGradDark)" stroke="#2d502f" stroke-width="2"/>
      <path d="M 0 0 L 0 -22.1" stroke="#d9f0cd" stroke-opacity="0.5" stroke-width="1.5" />
    </g>
    

    <g transform="translate(149 68) rotate(46)" opacity="1.0" filter="url(#paint)">
      <path d="M 0 0 C 9.9 -5.3, 11.7 -22.8, 0 -24.0 C -11.7 -22.8, -9.9 -5.3, 0 0 Z" fill="url(#leafGradDark)" stroke="#2d502f" stroke-width="2"/>
      <path d="M 0 0 L 0 -22.1" stroke="#d9f0cd" stroke-opacity="0.5" stroke-width="1.5" />
    </g>
    

    <g transform="translate(178 132) rotate(114)" opacity="1.0" filter="url(#paint)">
      <path d="M 0 0 C 9.9 -5.3, 11.7 -22.8, 0 -24.0 C -11.7 -22.8, -9.9 -5.3, 0 0 Z" fill="url(#leafGradDark)" stroke="#2d502f" stroke-width="2"/>
      <path d="M 0 0 L 0 -22.1" stroke="#d9f0cd" stroke-opacity="0.5" stroke-width="1.5" />
    </g>
    

    <g transform="translate(189 107) rotate(102)" opacity="1.0" filter="url(#paint)">
      <path d="M 0 0 C 9.9 -5.3, 11.7 -22.8, 0 -24.0 C -11.7 -22.8, -9.9 -5.3, 0 0 Z" fill="url(#leafGradDark)" stroke="#2d502f" stroke-width="2"/>
      <path d="M 0 0 L 0 -22.1" stroke="#d9f0cd" stroke-opacity="0.5" stroke-width="1.5" />
    </g>
    

    <g transform="translate(188 80) rotate(72)" opacity="1.0" filter="url(#paint)">
      <path d="M 0 0 C 9.9 -5.3, 11.7 -22.8, 0 -24.0 C -11.7 -22.8, -9.9 -5.3, 0 0 Z" fill="url(#leafGradDark)" stroke="#2d502f" stroke-width="2"/>
      <path d="M 0 0 L 0 -22.1" stroke="#d9f0cd" stroke-opacity="0.5" stroke-width="1.5" />
    </g>
    

    <g transform="translate(160 47) rotate(50)" opacity="1.0" filter="url(#paint)">
      <path d="M 0 0 C 9.9 -5.3, 11.7 -22.8, 0 -24.0 C -11.7 -22.8, -9.9 -5.3, 0 0 Z" fill="url(#leafGradDark)" stroke="#2d502f" stroke-width="2"/>
      <path d="M 0 0 L 0 -22.1" stroke="#d9f0cd" stroke-opacity="0.5" stroke-width="1.5" />
    </g>
    

    <g transform="translate(127 96) rotate(0.0)" opacity="1.0" filter="url(#paint)">
      <path d="M0 0 C 4.3 -2.6, 4.0 -12.2, 0 -14.4
               C -4.0 -12.2, -4.3 -2.6, 0 0 Z"
            fill="#efe7ff" stroke="#9a6282" stroke-width="2"/>
    </g>
    

    <g transform="translate(127 96) rotate(90.0)" opacity="1.0" filter="url(#paint)">
      <path d="M0 0 C 4.3 -2.6, 4.0 -12.2, 0 -14.4
               C -4.0 -12.2, -4.3 -2.6, 0 0 Z"
            fill="#efe7ff" stroke="#9a6282" stroke-width="2"/>
    </g>
    

    <g transform="translate(127 96) rotate(180.0)" opacity="1.0" filter="url(#paint)">
      <path d="M0 0 C 4.3 -2.6, 4.0 -12.2, 0 -14.4
               C -4.0 -12.2, -4.3 -2.6, 0 0 Z"
            fill="#efe7ff" stroke="#9a6282" stroke-width="2"/>
    </g>
    

    <g transform="translate(127 96) rotate(270.0)" opacity="1.0" filter="url(#paint)">
      <path d="M0 0 C 4.3 -2.6, 4.0 -12.2, 0 -14.4
               C -4.0 -12.2, -4.3 -2.6, 0 0 Z"
            fill="#efe7ff" stroke="#9a6282" stroke-width="2"/>
    </g>
    
<circle cx="127" cy="87.0" r="3.8" fill="#ffe59c" stroke="#c7a75b" stroke-width="1.2"/>

    <g transform="translate(151 66) rotate(0.0)" opacity="1.0" filter="url(#paint)">
      <path d="M0 0 C 4.1 -2.4, 3.7 -11.6, 0 -13.6
               C -3.7 -11.6, -4.1 -2.4, 0 0 Z"
            fill="#efe7ff" stroke="#9a6282" stroke-width="2"/>
    </g>
    

    <g transform="translate(151 66) rotate(90.0)" opacity="1.0" filter="url(#paint)">
      <path d="M0 0 C 4.1 -2.4, 3.7 -11.6, 0 -13.6
               C -3.7 -11.6, -4.1 -2.4, 0 0 Z"
            fill="#efe7ff" stroke="#9a6282" stroke-width="2"/>
    </g>
    

    <g transform="translate(151 66) rotate(180.0)" opacity="1.0" filter="url(#paint)">
      <path d="M0 0 C 4.1 -2.4, 3.7 -11.6, 0 -13.6
               C -3.7 -11.6, -4.1 -2.4, 0 0 Z"
            fill="#efe7ff" stroke="#9a6282" stroke-width="2"/>
    </g>
    

    <g transform="translate(151 66) rotate(270.0)" opacity="1.0" filter="url(#paint)">
      <path d="M0 0 C 4.1 -2.4, 3.7 -11.6, 0 -13.6
               C -3.7 -11.6, -4.1 -2.4, 0 0 Z"
            fill="#efe7ff" stroke="#9a6282" stroke-width="2"/>
    </g>
    
<circle cx="151" cy="57.5" r="3.6" fill="#ffe59c" stroke="#c7a75b" stroke-width="1.2"/>

    <g transform="translate(188 107) rotate(0.0)" opacity="1.0" filter="url(#paint)">
      <path d="M0 0 C 3.8 -2.3, 3.5 -10.9, 0 -12.8
               C -3.5 -10.9, -3.8 -2.3, 0 0 Z"
            fill="#efe7ff" stroke="#9a6282" stroke-width="2"/>
    </g>
    

    <g transform="translate(188 107) rotate(90.0)" opacity="1.0" filter="url(#paint)">
      <path d="M0 0 C 3.8 -2.3, 3.5 -10.9, 0 -12.8
               C -3.5 -10.9, -3.8 -2.3, 0 0 Z"
            fill="#efe7ff" stroke="#9a6282" stroke-width="2"/>
    </g>
    

    <g transform="translate(188 107) rotate(180.0)" opacity="1.0" filter="url(#paint)">
      <path d="M0 0 C 3.8 -2.3, 3.5 -10.9, 0 -12.8
               C -3.5 -10.9, -3.8 -2.3, 0 0 Z"
            fill="#efe7ff" stroke="#9a6282" stroke-width="2"/>
    </g>
    

    <g transform="translate(188 107) rotate(270.0)" opacity="1.0" filter="url(#paint)">
      <path d="M0 0 C 3.8 -2.3, 3.5 -10.9, 0 -12.8
               C -3.5 -10.9, -3.8 -2.3, 0 0 Z"
            fill="#efe7ff" stroke="#9a6282" stroke-width="2"/>
    </g>
    
<circle cx="188" cy="99.0" r="3.4" fill="#ffe59c" stroke="#c7a75b" stroke-width="1.2"/>

    <g opacity="0.9">
      <path d="M 77 93.6 L 77 98.4 M 74.6 96 L 79.4 96" stroke="#ffe79a" stroke-width="0.96" stroke-linecap="round"/>
      <path d="M 75.3 94.3 L 78.7 97.7 M 78.7 94.3 L 75.3 97.7" stroke="#ffe79a" stroke-width="0.66" stroke-linecap="round" opacity="0.65"/>
    </g>
    

    <g opacity="0.9">
      <path d="M 202 87.6 L 202 92.4 M 199.6 90 L 204.4 90" stroke="#ffe79a" stroke-width="0.96" stroke-linecap="round"/>
      <path d="M 200.3 88.3 L 203.7 91.7 M 203.7 88.3 L 200.3 91.7" stroke="#ffe79a" stroke-width="0.66" stroke-linecap="round" opacity="0.65"/>
    </g>
    

    <g opacity="0.9">
      <path d="M 170 41.8 L 170 46.2 M 167.8 44 L 172.2 44" stroke="#ffe79a" stroke-width="0.8800000000000001" stroke-linecap="round"/>
      <path d="M 168.5 42.5 L 171.5 45.5 M 171.5 42.5 L 168.5 45.5" stroke="#ffe79a" stroke-width="0.6050000000000001" stroke-linecap="round" opacity="0.65"/>
    </g>
    
    </svg>