<svg xmlns="http://www.w3.org/2000/svg" viewBox="0 0 256 192"><defs>
      <linearGradient id="sky" x1="0" y1="0" x2="0" y2="1"><stop offset="0%" stop-color="#dff2ff"/><stop offset="100%" stop-color="#f7f0de"/></linearGradient>
      <linearGradient id="night" x1="0" y1="0" x2="0" y2="1"><stop offset="0%" stop-color="#24324e"/><stop offset="100%" stop-color="#4c6680"/></linearGradient>
    </defs><rect width="256" height="192" rx="20" fill="#ffffff" opacity="0"/><circle cx="74" cy="64" r="26" fill="#ffe07a"/><path d="M108.0 64.0 L120.0 64.0" stroke="#f6c35f" stroke-width="4" stroke-linecap="round"/><path d="M103.4 81.0 L113.8 87.0" stroke="#f6c35f" stroke-width="4" stroke-linecap="round"/><path d="M91.0 93.4 L97.0 103.8" stroke="#f6c35f" stroke-width="4" stroke-linecap="round"/><path d="M74.0 98.0 L74.0 110.0" stroke="#f6c35f" stroke-width="4" stroke-linecap="round"/><path d="M57.0 93.4 L51.0 103.8" stroke="#f6c35f" stroke-width="4" stroke-linecap="round"/><path d="M44.6 81.0 L34.2 87.0" stroke="#f6c35f" stroke-width="4" stroke-linecap="round"/><path d="M40.0 64.0 L28.0 64.0" stroke="#f6c35f" stroke-width="4" stroke-linecap="round"/><path d="M44.6 47.0 L34.2 41.0" stroke="#f6c35f" stroke-width="4" stroke-linecap="round"/><path d="M57.0 34.6 L51.0 24.2" stroke="#f6c35f" stroke-width="4" stroke-linecap="round"/><path d="M74.0 30.0 L74.0 18.0" stroke="#f6c35f" stroke-width="4" stroke-linecap="round"/><path d="M91.0 34.6 L97.0 24.2" stroke="#f6c35f" stroke-width="4" stroke-linecap="round"/><path d="M103.4 47.0 L113.8 41.0" stroke="#f6c35f" stroke-width="4" stroke-linecap="round"/><path d="M48 148 C86 120, 133 112, 206 126" stroke="#6fa06f" stroke-width="8" fill="none" stroke-linecap="round"/></svg>