<svg xmlns="http://www.w3.org/2000/svg" viewBox="0 0 256 256">
    
    <defs>
      <linearGradient id="potBody" x1="0" y1="0" x2="1" y2="1">
        <stop offset="0%" stop-color="#c97b4a"/>
        <stop offset="100%" stop-color="#8f5334"/>
      </linearGradient>
      <linearGradient id="potLip" x1="0" y1="0" x2="1" y2="1">
        <stop offset="0%" stop-color="#e0a071"/>
        <stop offset="100%" stop-color="#a8623f"/>
      </linearGradient>
      <linearGradient id="soilGrad" x1="0" y1="0" x2="0" y2="1">
        <stop offset="0%" stop-color="#6c4c3b"/>
        <stop offset="100%" stop-color="#4b3025"/>
      </linearGradient>
      <linearGradient id="leafGrad" x1="0" y1="0" x2="0.8" y2="1">
        <stop offset="0%" stop-color="#8ecf7a"/>
        <stop offset="100%" stop-color="#447a42"/>
      </linearGradient>
      <linearGradient id="leafGradDark" x1="0" y1="0" x2="0.8" y2="1">
        <stop offset="0%" stop-color="#6cab67"/>
        <stop offset="100%" stop-color="#2e5b31"/>
      </linearGradient>
      <linearGradient id="stemGrad" x1="0" y1="0" x2="0" y2="1">
        <stop offset="0%" stop-color="#6b8e52"/>
        <stop offset="100%" stop-color="#3d5a31"/>
      </linearGradient>
      <linearGradient id="goldGlow" x1="0" y1="0" x2="1" y2="1">
        <stop offset="0%" stop-color="#fff6c7"/>
        <stop offset="100%" stop-color="#f4c85d"/>
      </linearGradient>
      <filter id="paint" x="-20%" y="-20%" width="140%" height="140%">
        <feTurbulence type="fractalNoise" baseFrequency="0.9" numOctaves="1" seed="7" result="noise"/>
        <feDisplacementMap in="SourceGraphic" in2="noise" scale="0.9" xChannelSelector="R" yChannelSelector="G"/>
      </filter>
      <filter id="softShadow" x="-40%" y="-40%" width="180%" height="180%">
        <feDropShadow dx="0" dy="4" stdDeviation="4" flood-color="#2a2019" flood-opacity="0.18"/>
      </filter>
      <filter id="rareGlow" x="-60%" y="-60%" width="220%" height="220%">
        <feGaussianBlur stdDeviation="6" result="blur"/>
      </filter>
      <radialGradient id="paperVignette" cx="50%" cy="35%" r="90%">
        <stop offset="0%" stop-color="#ffffff" stop-opacity="0.05"/>
        <stop offset="100%" stop-color="#9bb39a" stop-opacity="0.08"/>
      </radialGradient>
      
    </defs>
    
    
    
    <g opacity="0.45">
      <ellipse cx="128" cy="126" rx="62" ry="76" fill="url(#goldGlow)" filter="url(#rareGlow)"/>
    </g>
    

    <g filter="url(#softShadow)">
      <ellipse cx="128" cy="232" rx="48" ry="10" fill="#2b241f" opacity="0.12"/>
      <path d="M82 185 C88 178, 168 178, 174 185 L166 228 C165 234, 91 234, 90 228 Z" fill="url(#potBody)" stroke="#7a4730" stroke-width="2"/>
      <ellipse cx="128" cy="185" rx="47" ry="10" fill="url(#potLip)" stroke="#8c5437" stroke-width="2"/>
      <ellipse cx="128" cy="188" rx="39" ry="6.8" fill="url(#soilGrad)" opacity="0.96"/>
      <path d="M94 189 C107 185, 119 193, 130 189 C142 185, 152 191, 163 188" stroke="#7a5c4b" stroke-width="1.2" opacity="0.45" fill="none"/>
    </g>
    
<path d="M128 188 C 78 180, 88 131.3, 88 84.0" stroke="url(#stemGrad)" stroke-width="4.2" fill="none" stroke-linecap="round"/>
    <g transform="translate(88 155.66666666666666) rotate(-103)" opacity="0.95" filter="url(#paint)">
      <path d="M 0 0 C 7.9 -4.2, 9.4 -18.2, 0 -19.2 C -9.4 -18.2, -7.9 -4.2, 0 0 Z" fill="url(#leafGradDark)" stroke="#335836" stroke-width="2"/>
      <path d="M 0 0 L 0 -17.7" stroke="#d9f0cd" stroke-opacity="0.5" stroke-width="1.5" />
    </g>
    
    <g transform="translate(88 157.66666666666666) rotate(27)" opacity="0.95" filter="url(#paint)">
      <path d="M 0 0 C 7.9 -4.2, 9.4 -18.2, 0 -19.2 C -9.4 -18.2, -7.9 -4.2, 0 0 Z" fill="url(#leafGradDark)" stroke="#335836" stroke-width="2"/>
      <path d="M 0 0 L 0 -17.7" stroke="#d9f0cd" stroke-opacity="0.5" stroke-width="1.5" />
    </g>
    
    <g transform="translate(85 141.33333333333334) rotate(-103)" opacity="0.95" filter="url(#paint)">
      <path d="M 0 0 C 6.9 -3.7, 8.2 -16.0, 0 -16.8 C -8.2 -16.0, -6.9 -3.7, 0 0 Z" fill="url(#leafGradDark)" stroke="#335836" stroke-width="2"/>
      <path d="M 0 0 L 0 -15.5" stroke="#d9f0cd" stroke-opacity="0.5" stroke-width="1.5" />
    </g>
    
    <g transform="translate(91 143.33333333333334) rotate(27)" opacity="0.95" filter="url(#paint)">
      <path d="M 0 0 C 6.9 -3.7, 8.2 -16.0, 0 -16.8 C -8.2 -16.0, -6.9 -3.7, 0 0 Z" fill="url(#leafGradDark)" stroke="#335836" stroke-width="2"/>
      <path d="M 0 0 L 0 -15.5" stroke="#d9f0cd" stroke-opacity="0.5" stroke-width="1.5" />
    </g>
    
    <g transform="translate(82 127.0) rotate(-103)" opacity="0.95" filter="url(#paint)">
      <path d="M 0 0 C 5.9 -3.2, 7.0 -13.7, 0 -14.4 C -7.0 -13.7, -5.9 -3.2, 0 0 Z" fill="url(#leafGradDark)" stroke="#335836" stroke-width="2"/>
      <path d="M 0 0 L 0 -13.2" stroke="#d9f0cd" stroke-opacity="0.5" stroke-width="1.5" />
    </g>
    
    <g transform="translate(94 129.0) rotate(27)" opacity="0.95" filter="url(#paint)">
      <path d="M 0 0 C 5.9 -3.2, 7.0 -13.7, 0 -14.4 C -7.0 -13.7, -5.9 -3.2, 0 0 Z" fill="url(#leafGradDark)" stroke="#335836" stroke-width="2"/>
      <path d="M 0 0 L 0 -13.2" stroke="#d9f0cd" stroke-opacity="0.5" stroke-width="1.5" />
    </g>
    
    <g transform="translate(79 112.66666666666666) rotate(-103)" opacity="0.95" filter="url(#paint)">
      <path d="M 0 0 C 5.0 -2.6, 5.9 -11.4, 0 -12.0 C -5.9 -11.4, -5.0 -2.6, 0 0 Z" fill="url(#leafGradDark)" stroke="#335836" stroke-width="2"/>
      <path d="M 0 0 L 0 -11.0" stroke="#d9f0cd" stroke-opacity="0.5" stroke-width="1.5" />
    </g>
    
    <g transform="translate(97 114.66666666666666) rotate(27)" opacity="0.95" filter="url(#paint)">
      <path d="M 0 0 C 5.0 -2.6, 5.9 -11.4, 0 -12.0 C -5.9 -11.4, -5.0 -2.6, 0 0 Z" fill="url(#leafGradDark)" stroke="#335836" stroke-width="2"/>
      <path d="M 0 0 L 0 -11.0" stroke="#d9f0cd" stroke-opacity="0.5" stroke-width="1.5" />
    </g>
    
    <g transform="translate(76 98.33333333333333) rotate(-103)" opacity="0.95" filter="url(#paint)">
      <path d="M 0 0 C 4.0 -2.1, 4.7 -9.1, 0 -9.6 C -4.7 -9.1, -4.0 -2.1, 0 0 Z" fill="url(#leafGradDark)" stroke="#335836" stroke-width="2"/>
      <path d="M 0 0 L 0 -8.8" stroke="#d9f0cd" stroke-opacity="0.5" stroke-width="1.5" />
    </g>
    
    <g transform="translate(100 100.33333333333333) rotate(27)" opacity="0.95" filter="url(#paint)">
      <path d="M 0 0 C 4.0 -2.1, 4.7 -9.1, 0 -9.6 C -4.7 -9.1, -4.0 -2.1, 0 0 Z" fill="url(#leafGradDark)" stroke="#335836" stroke-width="2"/>
      <path d="M 0 0 L 0 -8.8" stroke="#d9f0cd" stroke-opacity="0.5" stroke-width="1.5" />
    </g>
    
<path d="M128 188 C 160 178, 170 130.2, 170 84.0" stroke="url(#stemGrad)" stroke-width="4.2" fill="none" stroke-linecap="round"/>
    <g transform="translate(170 154.0) rotate(-27)" opacity="0.95" filter="url(#paint)">
      <path d="M 0 0 C 7.9 -4.2, 9.4 -18.2, 0 -19.2 C -9.4 -18.2, -7.9 -4.2, 0 0 Z" fill="url(#leafGradDark)" stroke="#335836" stroke-width="2"/>
      <path d="M 0 0 L 0 -17.7" stroke="#d9f0cd" stroke-opacity="0.5" stroke-width="1.5" />
    </g>
    
    <g transform="translate(170 156.0) rotate(103)" opacity="0.95" filter="url(#paint)">
      <path d="M 0 0 C 7.9 -4.2, 9.4 -18.2, 0 -19.2 C -9.4 -18.2, -7.9 -4.2, 0 0 Z" fill="url(#leafGradDark)" stroke="#335836" stroke-width="2"/>
      <path d="M 0 0 L 0 -17.7" stroke="#d9f0cd" stroke-opacity="0.5" stroke-width="1.5" />
    </g>
    
    <g transform="translate(167 140.0) rotate(-27)" opacity="0.95" filter="url(#paint)">
      <path d="M 0 0 C 6.9 -3.7, 8.2 -16.0, 0 -16.8 C -8.2 -16.0, -6.9 -3.7, 0 0 Z" fill="url(#leafGradDark)" stroke="#335836" stroke-width="2"/>
      <path d="M 0 0 L 0 -15.5" stroke="#d9f0cd" stroke-opacity="0.5" stroke-width="1.5" />
    </g>
    
    <g transform="translate(173 142.0) rotate(103)" opacity="0.95" filter="url(#paint)">
      <path d="M 0 0 C 6.9 -3.7, 8.2 -16.0, 0 -16.8 C -8.2 -16.0, -6.9 -3.7, 0 0 Z" fill="url(#leafGradDark)" stroke="#335836" stroke-width="2"/>
      <path d="M 0 0 L 0 -15.5" stroke="#d9f0cd" stroke-opacity="0.5" stroke-width="1.5" />
    </g>
    
    <g transform="translate(164 126.0) rotate(-27)" opacity="0.95" filter="url(#paint)">
      <path d="M 0 0 C 5.9 -3.2, 7.0 -13.7, 0 -14.4 C -7.0 -13.7, -5.9 -3.2, 0 0 Z" fill="url(#leafGradDark)" stroke="#335836" stroke-width="2"/>
      <path d="M 0 0 L 0 -13.2" stroke="#d9f0cd" stroke-opacity="0.5" stroke-width="1.5" />
    </g>
    
    <g transform="translate(176 128.0) rotate(103)" opacity="0.95" filter="url(#paint)">
      <path d="M 0 0 C 5.9 -3.2, 7.0 -13.7, 0 -14.4 C -7.0 -13.7, -5.9 -3.2, 0 0 Z" fill="url(#leafGradDark)" stroke="#335836" stroke-width="2"/>
      <path d="M 0 0 L 0 -13.2" stroke="#d9f0cd" stroke-opacity="0.5" stroke-width="1.5" />
    </g>
    
    <g transform="translate(161 112.0) rotate(-27)" opacity="0.95" filter="url(#paint)">
      <path d="M 0 0 C 5.0 -2.6, 5.9 -11.4, 0 -12.0 C -5.9 -11.4, -5.0 -2.6, 0 0 Z" fill="url(#leafGradDark)" stroke="#335836" stroke-width="2"/>
      <path d="M 0 0 L 0 -11.0" stroke="#d9f0cd" stroke-opacity="0.5" stroke-width="1.5" />
    </g>
    
    <g transform="translate(179 114.0) rotate(103)" opacity="0.95" filter="url(#paint)">
      <path d="M 0 0 C 5.0 -2.6, 5.9 -11.4, 0 -12.0 C -5.9 -11.4, -5.0 -2.6, 0 0 Z" fill="url(#leafGradDark)" stroke="#335836" stroke-width="2"/>
      <path d="M 0 0 L 0 -11.0" stroke="#d9f0cd" stroke-opacity="0.5" stroke-width="1.5" />
    </g>
    
    <g transform="translate(158 98.0) rotate(-27)" opacity="0.95" filter="url(#paint)">
      <path d="M 0 0 C 4.0 -2.1, 4.7 -9.1, 0 -9.6 C -4.7 -9.1, -4.0 -2.1, 0 0 Z" fill="url(#leafGradDark)" stroke="#335836" stroke-width="2"/>
      <path d="M 0 0 L 0 -8.8" stroke="#d9f0cd" stroke-opacity="0.5" stroke-width="1.5" />
    </g>
    
    <g transform="translate(182 100.0) rotate(103)" opacity="0.95" filter="url(#paint)">
      <path d="M 0 0 C 4.0 -2.1, 4.7 -9.1, 0 -9.6 C -4.7 -9.1, -4.0 -2.1, 0 0 Z" fill="url(#leafGradDark)" stroke="#335836" stroke-width="2"/>
      <path d="M 0 0 L 0 -8.8" stroke="#d9f0cd" stroke-opacity="0.5" stroke-width="1.5" />
    </g>
    
<path d="M128 188 C 116 170, 126 117.7, 126 66.0" stroke="url(#stemGrad)" stroke-width="4.2" fill="none" stroke-linecap="round"/>
    <g transform="translate(126 144.33333333333334) rotate(-65)" opacity="0.95" filter="url(#paint)">
      <path d="M 0 0 C 7.9 -4.2, 9.4 -18.2, 0 -19.2 C -9.4 -18.2, -7.9 -4.2, 0 0 Z" fill="url(#leafGradDark)" stroke="#335836" stroke-width="2"/>
      <path d="M 0 0 L 0 -17.7" stroke="#d9f0cd" stroke-opacity="0.5" stroke-width="1.5" />
    </g>
    
    <g transform="translate(126 146.33333333333334) rotate(65)" opacity="0.95" filter="url(#paint)">
      <path d="M 0 0 C 7.9 -4.2, 9.4 -18.2, 0 -19.2 C -9.4 -18.2, -7.9 -4.2, 0 0 Z" fill="url(#leafGradDark)" stroke="#335836" stroke-width="2"/>
      <path d="M 0 0 L 0 -17.7" stroke="#d9f0cd" stroke-opacity="0.5" stroke-width="1.5" />
    </g>
    
    <g transform="translate(123 128.66666666666666) rotate(-65)" opacity="0.95" filter="url(#paint)">
      <path d="M 0 0 C 6.9 -3.7, 8.2 -16.0, 0 -16.8 C -8.2 -16.0, -6.9 -3.7, 0 0 Z" fill="url(#leafGradDark)" stroke="#335836" stroke-width="2"/>
      <path d="M 0 0 L 0 -15.5" stroke="#d9f0cd" stroke-opacity="0.5" stroke-width="1.5" />
    </g>
    
    <g transform="translate(129 130.66666666666666) rotate(65)" opacity="0.95" filter="url(#paint)">
      <path d="M 0 0 C 6.9 -3.7, 8.2 -16.0, 0 -16.8 C -8.2 -16.0, -6.9 -3.7, 0 0 Z" fill="url(#leafGradDark)" stroke="#335836" stroke-width="2"/>
      <path d="M 0 0 L 0 -15.5" stroke="#d9f0cd" stroke-opacity="0.5" stroke-width="1.5" />
    </g>
    
    <g transform="translate(120 113.0) rotate(-65)" opacity="0.95" filter="url(#paint)">
      <path d="M 0 0 C 5.9 -3.2, 7.0 -13.7, 0 -14.4 C -7.0 -13.7, -5.9 -3.2, 0 0 Z" fill="url(#leafGradDark)" stroke="#335836" stroke-width="2"/>
      <path d="M 0 0 L 0 -13.2" stroke="#d9f0cd" stroke-opacity="0.5" stroke-width="1.5" />
    </g>
    
    <g transform="translate(132 115.0) rotate(65)" opacity="0.95" filter="url(#paint)">
      <path d="M 0 0 C 5.9 -3.2, 7.0 -13.7, 0 -14.4 C -7.0 -13.7, -5.9 -3.2, 0 0 Z" fill="url(#leafGradDark)" stroke="#335836" stroke-width="2"/>
      <path d="M 0 0 L 0 -13.2" stroke="#d9f0cd" stroke-opacity="0.5" stroke-width="1.5" />
    </g>
    
    <g transform="translate(117 97.33333333333334) rotate(-65)" opacity="0.95" filter="url(#paint)">
      <path d="M 0 0 C 5.0 -2.6, 5.9 -11.4, 0 -12.0 C -5.9 -11.4, -5.0 -2.6, 0 0 Z" fill="url(#leafGradDark)" stroke="#335836" stroke-width="2"/>
      <path d="M 0 0 L 0 -11.0" stroke="#d9f0cd" stroke-opacity="0.5" stroke-width="1.5" />
    </g>
    
    <g transform="translate(135 99.33333333333334) rotate(65)" opacity="0.95" filter="url(#paint)">
      <path d="M 0 0 C 5.0 -2.6, 5.9 -11.4, 0 -12.0 C -5.9 -11.4, -5.0 -2.6, 0 0 Z" fill="url(#leafGradDark)" stroke="#335836" stroke-width="2"/>
      <path d="M 0 0 L 0 -11.0" stroke="#d9f0cd" stroke-opacity="0.5" stroke-width="1.5" />
    </g>
    
    <g transform="translate(114 81.66666666666667) rotate(-65)" opacity="0.95" filter="url(#paint)">
      <path d="M 0 0 C 4.0 -2.1, 4.7 -9.1, 0 -9.6 C -4.7 -9.1, -4.0 -2.1, 0 0 Z" fill="url(#leafGradDark)" stroke="#335836" stroke-width="2"/>
      <path d="M 0 0 L 0 -8.8" stroke="#d9f0cd" stroke-opacity="0.5" stroke-width="1.5" />
    </g>
    
    <g transform="translate(138 83.66666666666667) rotate(65)" opacity="0.95" filter="url(#paint)">
      <path d="M 0 0 C 4.0 -2.1, 4.7 -9.1, 0 -9.6 C -4.7 -9.1, -4.0 -2.1, 0 0 Z" fill="url(#leafGradDark)" stroke="#335836" stroke-width="2"/>
      <path d="M 0 0 L 0 -8.8" stroke="#d9f0cd" stroke-opacity="0.5" stroke-width="1.5" />
    </g>
    
<path d="M128 188 C 140 180, 150 137.6, 150 98.0" stroke="url(#stemGrad)" stroke-width="4.2" fill="none" stroke-linecap="round"/>
    <g transform="translate(150 158.0) rotate(-43)" opacity="0.95" filter="url(#paint)">
      <path d="M 0 0 C 7.9 -4.2, 9.4 -18.2, 0 -19.2 C -9.4 -18.2, -7.9 -4.2, 0 0 Z" fill="url(#leafGrad)" stroke="#3a593b" stroke-width="2"/>
      <path d="M 0 0 L 0 -17.7" stroke="#d9f0cd" stroke-opacity="0.5" stroke-width="1.5" />
    </g>
    
    <g transform="translate(150 160.0) rotate(87)" opacity="0.95" filter="url(#paint)">
      <path d="M 0 0 C 7.9 -4.2, 9.4 -18.2, 0 -19.2 C -9.4 -18.2, -7.9 -4.2, 0 0 Z" fill="url(#leafGrad)" stroke="#3a593b" stroke-width="2"/>
      <path d="M 0 0 L 0 -17.7" stroke="#d9f0cd" stroke-opacity="0.5" stroke-width="1.5" />
    </g>
    
    <g transform="translate(147 146.0) rotate(-43)" opacity="0.95" filter="url(#paint)">
      <path d="M 0 0 C 6.9 -3.7, 8.2 -16.0, 0 -16.8 C -8.2 -16.0, -6.9 -3.7, 0 0 Z" fill="url(#leafGrad)" stroke="#3a593b" stroke-width="2"/>
      <path d="M 0 0 L 0 -15.5" stroke="#d9f0cd" stroke-opacity="0.5" stroke-width="1.5" />
    </g>
    
    <g transform="translate(153 148.0) rotate(87)" opacity="0.95" filter="url(#paint)">
      <path d="M 0 0 C 6.9 -3.7, 8.2 -16.0, 0 -16.8 C -8.2 -16.0, -6.9 -3.7, 0 0 Z" fill="url(#leafGrad)" stroke="#3a593b" stroke-width="2"/>
      <path d="M 0 0 L 0 -15.5" stroke="#d9f0cd" stroke-opacity="0.5" stroke-width="1.5" />
    </g>
    
    <g transform="translate(144 134.0) rotate(-43)" opacity="0.95" filter="url(#paint)">
      <path d="M 0 0 C 5.9 -3.2, 7.0 -13.7, 0 -14.4 C -7.0 -13.7, -5.9 -3.2, 0 0 Z" fill="url(#leafGrad)" stroke="#3a593b" stroke-width="2"/>
      <path d="M 0 0 L 0 -13.2" stroke="#d9f0cd" stroke-opacity="0.5" stroke-width="1.5" />
    </g>
    
    <g transform="translate(156 136.0) rotate(87)" opacity="0.95" filter="url(#paint)">
      <path d="M 0 0 C 5.9 -3.2, 7.0 -13.7, 0 -14.4 C -7.0 -13.7, -5.9 -3.2, 0 0 Z" fill="url(#leafGrad)" stroke="#3a593b" stroke-width="2"/>
      <path d="M 0 0 L 0 -13.2" stroke="#d9f0cd" stroke-opacity="0.5" stroke-width="1.5" />
    </g>
    
    <g transform="translate(141 122.0) rotate(-43)" opacity="0.95" filter="url(#paint)">
      <path d="M 0 0 C 5.0 -2.6, 5.9 -11.4, 0 -12.0 C -5.9 -11.4, -5.0 -2.6, 0 0 Z" fill="url(#leafGrad)" stroke="#3a593b" stroke-width="2"/>
      <path d="M 0 0 L 0 -11.0" stroke="#d9f0cd" stroke-opacity="0.5" stroke-width="1.5" />
    </g>
    
    <g transform="translate(159 124.0) rotate(87)" opacity="0.95" filter="url(#paint)">
      <path d="M 0 0 C 5.0 -2.6, 5.9 -11.4, 0 -12.0 C -5.9 -11.4, -5.0 -2.6, 0 0 Z" fill="url(#leafGrad)" stroke="#3a593b" stroke-width="2"/>
      <path d="M 0 0 L 0 -11.0" stroke="#d9f0cd" stroke-opacity="0.5" stroke-width="1.5" />
    </g>
    
    <g transform="translate(138 110.0) rotate(-43)" opacity="0.95" filter="url(#paint)">
      <path d="M 0 0 C 4.0 -2.1, 4.7 -9.1, 0 -9.6 C -4.7 -9.1, -4.0 -2.1, 0 0 Z" fill="url(#leafGrad)" stroke="#3a593b" stroke-width="2"/>
      <path d="M 0 0 L 0 -8.8" stroke="#d9f0cd" stroke-opacity="0.5" stroke-width="1.5" />
    </g>
    
    <g transform="translate(162 112.0) rotate(87)" opacity="0.95" filter="url(#paint)">
      <path d="M 0 0 C 4.0 -2.1, 4.7 -9.1, 0 -9.6 C -4.7 -9.1, -4.0 -2.1, 0 0 Z" fill="url(#leafGrad)" stroke="#3a593b" stroke-width="2"/>
      <path d="M 0 0 L 0 -8.8" stroke="#d9f0cd" stroke-opacity="0.5" stroke-width="1.5" />
    </g>
    
<path d="M128 188 C 94 182, 104 140.5, 104 102.0" stroke="url(#stemGrad)" stroke-width="4.2" fill="none" stroke-linecap="round"/>
    <g transform="translate(104 160.33333333333334) rotate(-87)" opacity="0.95" filter="url(#paint)">
      <path d="M 0 0 C 7.9 -4.2, 9.4 -18.2, 0 -19.2 C -9.4 -18.2, -7.9 -4.2, 0 0 Z" fill="url(#leafGrad)" stroke="#3a593b" stroke-width="2"/>
      <path d="M 0 0 L 0 -17.7" stroke="#d9f0cd" stroke-opacity="0.5" stroke-width="1.5" />
    </g>
    
    <g transform="translate(104 162.33333333333334) rotate(43)" opacity="0.95" filter="url(#paint)">
      <path d="M 0 0 C 7.9 -4.2, 9.4 -18.2, 0 -19.2 C -9.4 -18.2, -7.9 -4.2, 0 0 Z" fill="url(#leafGrad)" stroke="#3a593b" stroke-width="2"/>
      <path d="M 0 0 L 0 -17.7" stroke="#d9f0cd" stroke-opacity="0.5" stroke-width="1.5" />
    </g>
    
    <g transform="translate(101 148.66666666666666) rotate(-87)" opacity="0.95" filter="url(#paint)">
      <path d="M 0 0 C 6.9 -3.7, 8.2 -16.0, 0 -16.8 C -8.2 -16.0, -6.9 -3.7, 0 0 Z" fill="url(#leafGrad)" stroke="#3a593b" stroke-width="2"/>
      <path d="M 0 0 L 0 -15.5" stroke="#d9f0cd" stroke-opacity="0.5" stroke-width="1.5" />
    </g>
    
    <g transform="translate(107 150.66666666666666) rotate(43)" opacity="0.95" filter="url(#paint)">
      <path d="M 0 0 C 6.9 -3.7, 8.2 -16.0, 0 -16.8 C -8.2 -16.0, -6.9 -3.7, 0 0 Z" fill="url(#leafGrad)" stroke="#3a593b" stroke-width="2"/>
      <path d="M 0 0 L 0 -15.5" stroke="#d9f0cd" stroke-opacity="0.5" stroke-width="1.5" />
    </g>
    
    <g transform="translate(98 137.0) rotate(-87)" opacity="0.95" filter="url(#paint)">
      <path d="M 0 0 C 5.9 -3.2, 7.0 -13.7, 0 -14.4 C -7.0 -13.7, -5.9 -3.2, 0 0 Z" fill="url(#leafGrad)" stroke="#3a593b" stroke-width="2"/>
      <path d="M 0 0 L 0 -13.2" stroke="#d9f0cd" stroke-opacity="0.5" stroke-width="1.5" />
    </g>
    
    <g transform="translate(110 139.0) rotate(43)" opacity="0.95" filter="url(#paint)">
      <path d="M 0 0 C 5.9 -3.2, 7.0 -13.7, 0 -14.4 C -7.0 -13.7, -5.9 -3.2, 0 0 Z" fill="url(#leafGrad)" stroke="#3a593b" stroke-width="2"/>
      <path d="M 0 0 L 0 -13.2" stroke="#d9f0cd" stroke-opacity="0.5" stroke-width="1.5" />
    </g>
    
    <g transform="translate(95 125.33333333333334) rotate(-87)" opacity="0.95" filter="url(#paint)">
      <path d="M 0 0 C 5.0 -2.6, 5.9 -11.4, 0 -12.0 C -5.9 -11.4, -5.0 -2.6, 0 0 Z" fill="url(#leafGrad)" stroke="#3a593b" stroke-width="2"/>
      <path d="M 0 0 L 0 -11.0" stroke="#d9f0cd" stroke-opacity="0.5" stroke-width="1.5" />
    </g>
    
    <g transform="translate(113 127.33333333333334) rotate(43)" opacity="0.95" filter="url(#paint)">
      <path d="M 0 0 C 5.0 -2.6, 5.9 -11.4, 0 -12.0 C -5.9 -11.4, -5.0 -2.6, 0 0 Z" fill="url(#leafGrad)" stroke="#3a593b" stroke-width="2"/>
      <path d="M 0 0 L 0 -11.0" stroke="#d9f0cd" stroke-opacity="0.5" stroke-width="1.5" />
    </g>
    
    <g transform="translate(92 113.66666666666666) rotate(-87)" opacity="0.95" filter="url(#paint)">
      <path d="M 0 0 C 4.0 -2.1, 4.7 -9.1, 0 -9.6 C -4.7 -9.1, -4.0 -2.1, 0 0 Z" fill="url(#leafGrad)" stroke="#3a593b" stroke-width="2"/>
      <path d="M 0 0 L 0 -8.8" stroke="#d9f0cd" stroke-opacity="0.5" stroke-width="1.5" />
    </g>
    
    <g transform="translate(116 115.66666666666666) rotate(43)" opacity="0.95" filter="url(#paint)">
      <path d="M 0 0 C 4.0 -2.1, 4.7 -9.1, 0 -9.6 C -4.7 -9.1, -4.0 -2.1, 0 0 Z" fill="url(#leafGrad)" stroke="#3a593b" stroke-width="2"/>
      <path d="M 0 0 L 0 -8.8" stroke="#d9f0cd" stroke-opacity="0.5" stroke-width="1.5" />
    </g>
    
<circle cx="91" cy="116" r="4.2" fill="#ffe4b3" stroke="#c9a05a" stroke-width="1.4" opacity="0.9"/>

    <g opacity="0.9">
      <path d="M 101 106.2 L 101 109.8 M 99.2 108 L 102.8 108" stroke="#ffe79a" stroke-width="0.7200000000000001" stroke-linecap="round"/>
      <path d="M 99.7 106.7 L 102.3 109.3 M 102.3 106.7 L 99.7 109.3" stroke="#ffe79a" stroke-width="0.49500000000000005" stroke-linecap="round" opacity="0.65"/>
    </g>
    
<circle cx="165" cy="112" r="4.2" fill="#ffe4b3" stroke="#c9a05a" stroke-width="1.4" opacity="0.9"/>

    <g opacity="0.9">
      <path d="M 175 102.2 L 175 105.8 M 173.2 104 L 176.8 104" stroke="#ffe79a" stroke-width="0.7200000000000001" stroke-linecap="round"/>
      <path d="M 173.7 102.7 L 176.3 105.3 M 176.3 102.7 L 173.7 105.3" stroke="#ffe79a" stroke-width="0.49500000000000005" stroke-linecap="round" opacity="0.65"/>
    </g>
    
<circle cx="126" cy="94" r="4.2" fill="#ffe4b3" stroke="#c9a05a" stroke-width="1.4" opacity="0.9"/>

    <g opacity="0.9">
      <path d="M 136 84.2 L 136 87.8 M 134.2 86 L 137.8 86" stroke="#ffe79a" stroke-width="0.7200000000000001" stroke-linecap="round"/>
      <path d="M 134.7 84.7 L 137.3 87.3 M 137.3 84.7 L 134.7 87.3" stroke="#ffe79a" stroke-width="0.49500000000000005" stroke-linecap="round" opacity="0.65"/>
    </g>
    
<circle cx="142" cy="123" r="4.2" fill="#ffe4b3" stroke="#c9a05a" stroke-width="1.4" opacity="0.9"/>

    <g opacity="0.9">
      <path d="M 152 113.2 L 152 116.8 M 150.2 115 L 153.8 115" stroke="#ffe79a" stroke-width="0.7200000000000001" stroke-linecap="round"/>
      <path d="M 150.7 113.7 L 153.3 116.3 M 153.3 113.7 L 150.7 116.3" stroke="#ffe79a" stroke-width="0.49500000000000005" stroke-linecap="round" opacity="0.65"/>
    </g>
    
    </svg>