<svg xmlns="http://www.w3.org/2000/svg" viewBox="0 0 256 256">
    
    <defs>
      <linearGradient id="potBody" x1="0" y1="0" x2="1" y2="1">
        <stop offset="0%" stop-color="#c97b4a"/>
        <stop offset="100%" stop-color="#8f5334"/>
      </linearGradient>
      <linearGradient id="potLip" x1="0" y1="0" x2="1" y2="1">
        <stop offset="0%" stop-color="#e0a071"/>
        <stop offset="100%" stop-color="#a8623f"/>
      </linearGradient>
      <linearGradient id="soilGrad" x1="0" y1="0" x2="0" y2="1">
        <stop offset="0%" stop-color="#6c4c3b"/>
        <stop offset="100%" stop-color="#4b3025"/>
      </linearGradient>
      <linearGradient id="leafGrad" x1="0" y1="0" x2="0.8" y2="1">
        <stop offset="0%" stop-color="#8ecf7a"/>
        <stop offset="100%" stop-color="#447a42"/>
      </linearGradient>
      <linearGradient id="leafGradDark" x1="0" y1="0" x2="0.8" y2="1">
        <stop offset="0%" stop-color="#6cab67"/>
        <stop offset="100%" stop-color="#2e5b31"/>
      </linearGradient>
      <linearGradient id="stemGrad" x1="0" y1="0" x2="0" y2="1">
        <stop offset="0%" stop-color="#6b8e52"/>
        <stop offset="100%" stop-color="#3d5a31"/>
      </linearGradient>
      <linearGradient id="goldGlow" x1="0" y1="0" x2="1" y2="1">
        <stop offset="0%" stop-color="#fff6c7"/>
        <stop offset="100%" stop-color="#f4c85d"/>
      </linearGradient>
      <filter id="paint" x="-20%" y="-20%" width="140%" height="140%">
        <feTurbulence type="fractalNoise" baseFrequency="0.9" numOctaves="1" seed="7" result="noise"/>
        <feDisplacementMap in="SourceGraphic" in2="noise" scale="0.9" xChannelSelector="R" yChannelSelector="G"/>
      </filter>
      <filter id="softShadow" x="-40%" y="-40%" width="180%" height="180%">
        <feDropShadow dx="0" dy="4" stdDeviation="4" flood-color="#2a2019" flood-opacity="0.18"/>
      </filter>
      <filter id="rareGlow" x="-60%" y="-60%" width="220%" height="220%">
        <feGaussianBlur stdDeviation="6" result="blur"/>
      </filter>
      <radialGradient id="paperVignette" cx="50%" cy="35%" r="90%">
        <stop offset="0%" stop-color="#ffffff" stop-opacity="0.05"/>
        <stop offset="100%" stop-color="#9bb39a" stop-opacity="0.08"/>
      </radialGradient>
      
    </defs>
    
    
    
    <g filter="url(#softShadow)">
      <ellipse cx="128" cy="232" rx="48" ry="10" fill="#2b241f" opacity="0.12"/>
      <path d="M82 185 C88 178, 168 178, 174 185 L166 228 C165 234, 91 234, 90 228 Z" fill="url(#potBody)" stroke="#7a4730" stroke-width="2"/>
      <ellipse cx="128" cy="185" rx="47" ry="10" fill="url(#potLip)" stroke="#8c5437" stroke-width="2"/>
      <ellipse cx="128" cy="188" rx="39" ry="6.8" fill="url(#soilGrad)" opacity="0.96"/>
      <path d="M94 189 C107 185, 119 193, 130 189 C142 185, 152 191, 163 188" stroke="#7a5c4b" stroke-width="1.2" opacity="0.45" fill="none"/>
    </g>
    
<path d="M128 188 C 102 180, 112 152.0, 112 130.0" stroke="url(#stemGrad)" stroke-width="4.2" fill="none" stroke-linecap="round"/>
    <g transform="translate(112 163.33333333333334) rotate(-90)" opacity="0.95" filter="url(#paint)">
      <path d="M 0 0 C 7.9 -4.2, 9.4 -18.2, 0 -19.2 C -9.4 -18.2, -7.9 -4.2, 0 0 Z" fill="url(#leafGrad)" stroke="#3a593b" stroke-width="2"/>
      <path d="M 0 0 L 0 -17.7" stroke="#d9f0cd" stroke-opacity="0.5" stroke-width="1.5" />
    </g>
    
    <g transform="translate(112 165.33333333333334) rotate(40)" opacity="0.95" filter="url(#paint)">
      <path d="M 0 0 C 7.9 -4.2, 9.4 -18.2, 0 -19.2 C -9.4 -18.2, -7.9 -4.2, 0 0 Z" fill="url(#leafGrad)" stroke="#3a593b" stroke-width="2"/>
      <path d="M 0 0 L 0 -17.7" stroke="#d9f0cd" stroke-opacity="0.5" stroke-width="1.5" />
    </g>
    
    <g transform="translate(109 156.66666666666666) rotate(-90)" opacity="0.95" filter="url(#paint)">
      <path d="M 0 0 C 6.9 -3.7, 8.2 -16.0, 0 -16.8 C -8.2 -16.0, -6.9 -3.7, 0 0 Z" fill="url(#leafGrad)" stroke="#3a593b" stroke-width="2"/>
      <path d="M 0 0 L 0 -15.5" stroke="#d9f0cd" stroke-opacity="0.5" stroke-width="1.5" />
    </g>
    
    <g transform="translate(115 158.66666666666666) rotate(40)" opacity="0.95" filter="url(#paint)">
      <path d="M 0 0 C 6.9 -3.7, 8.2 -16.0, 0 -16.8 C -8.2 -16.0, -6.9 -3.7, 0 0 Z" fill="url(#leafGrad)" stroke="#3a593b" stroke-width="2"/>
      <path d="M 0 0 L 0 -15.5" stroke="#d9f0cd" stroke-opacity="0.5" stroke-width="1.5" />
    </g>
    
    <g transform="translate(106 150.0) rotate(-90)" opacity="0.95" filter="url(#paint)">
      <path d="M 0 0 C 5.9 -3.2, 7.0 -13.7, 0 -14.4 C -7.0 -13.7, -5.9 -3.2, 0 0 Z" fill="url(#leafGrad)" stroke="#3a593b" stroke-width="2"/>
      <path d="M 0 0 L 0 -13.2" stroke="#d9f0cd" stroke-opacity="0.5" stroke-width="1.5" />
    </g>
    
    <g transform="translate(118 152.0) rotate(40)" opacity="0.95" filter="url(#paint)">
      <path d="M 0 0 C 5.9 -3.2, 7.0 -13.7, 0 -14.4 C -7.0 -13.7, -5.9 -3.2, 0 0 Z" fill="url(#leafGrad)" stroke="#3a593b" stroke-width="2"/>
      <path d="M 0 0 L 0 -13.2" stroke="#d9f0cd" stroke-opacity="0.5" stroke-width="1.5" />
    </g>
    
    <g transform="translate(103 143.33333333333334) rotate(-90)" opacity="0.95" filter="url(#paint)">
      <path d="M 0 0 C 5.0 -2.6, 5.9 -11.4, 0 -12.0 C -5.9 -11.4, -5.0 -2.6, 0 0 Z" fill="url(#leafGrad)" stroke="#3a593b" stroke-width="2"/>
      <path d="M 0 0 L 0 -11.0" stroke="#d9f0cd" stroke-opacity="0.5" stroke-width="1.5" />
    </g>
    
    <g transform="translate(121 145.33333333333334) rotate(40)" opacity="0.95" filter="url(#paint)">
      <path d="M 0 0 C 5.0 -2.6, 5.9 -11.4, 0 -12.0 C -5.9 -11.4, -5.0 -2.6, 0 0 Z" fill="url(#leafGrad)" stroke="#3a593b" stroke-width="2"/>
      <path d="M 0 0 L 0 -11.0" stroke="#d9f0cd" stroke-opacity="0.5" stroke-width="1.5" />
    </g>
    
    <g transform="translate(100 136.66666666666666) rotate(-90)" opacity="0.95" filter="url(#paint)">
      <path d="M 0 0 C 4.0 -2.1, 4.7 -9.1, 0 -9.6 C -4.7 -9.1, -4.0 -2.1, 0 0 Z" fill="url(#leafGrad)" stroke="#3a593b" stroke-width="2"/>
      <path d="M 0 0 L 0 -8.8" stroke="#d9f0cd" stroke-opacity="0.5" stroke-width="1.5" />
    </g>
    
    <g transform="translate(124 138.66666666666666) rotate(40)" opacity="0.95" filter="url(#paint)">
      <path d="M 0 0 C 4.0 -2.1, 4.7 -9.1, 0 -9.6 C -4.7 -9.1, -4.0 -2.1, 0 0 Z" fill="url(#leafGrad)" stroke="#3a593b" stroke-width="2"/>
      <path d="M 0 0 L 0 -8.8" stroke="#d9f0cd" stroke-opacity="0.5" stroke-width="1.5" />
    </g>
    
<path d="M128 188 C 134 178, 144 150.9, 144 130.0" stroke="url(#stemGrad)" stroke-width="4.2" fill="none" stroke-linecap="round"/>
    <g transform="translate(144 161.66666666666666) rotate(-40)" opacity="0.95" filter="url(#paint)">
      <path d="M 0 0 C 7.9 -4.2, 9.4 -18.2, 0 -19.2 C -9.4 -18.2, -7.9 -4.2, 0 0 Z" fill="url(#leafGrad)" stroke="#3a593b" stroke-width="2"/>
      <path d="M 0 0 L 0 -17.7" stroke="#d9f0cd" stroke-opacity="0.5" stroke-width="1.5" />
    </g>
    
    <g transform="translate(144 163.66666666666666) rotate(90)" opacity="0.95" filter="url(#paint)">
      <path d="M 0 0 C 7.9 -4.2, 9.4 -18.2, 0 -19.2 C -9.4 -18.2, -7.9 -4.2, 0 0 Z" fill="url(#leafGrad)" stroke="#3a593b" stroke-width="2"/>
      <path d="M 0 0 L 0 -17.7" stroke="#d9f0cd" stroke-opacity="0.5" stroke-width="1.5" />
    </g>
    
    <g transform="translate(141 155.33333333333334) rotate(-40)" opacity="0.95" filter="url(#paint)">
      <path d="M 0 0 C 6.9 -3.7, 8.2 -16.0, 0 -16.8 C -8.2 -16.0, -6.9 -3.7, 0 0 Z" fill="url(#leafGrad)" stroke="#3a593b" stroke-width="2"/>
      <path d="M 0 0 L 0 -15.5" stroke="#d9f0cd" stroke-opacity="0.5" stroke-width="1.5" />
    </g>
    
    <g transform="translate(147 157.33333333333334) rotate(90)" opacity="0.95" filter="url(#paint)">
      <path d="M 0 0 C 6.9 -3.7, 8.2 -16.0, 0 -16.8 C -8.2 -16.0, -6.9 -3.7, 0 0 Z" fill="url(#leafGrad)" stroke="#3a593b" stroke-width="2"/>
      <path d="M 0 0 L 0 -15.5" stroke="#d9f0cd" stroke-opacity="0.5" stroke-width="1.5" />
    </g>
    
    <g transform="translate(138 149.0) rotate(-40)" opacity="0.95" filter="url(#paint)">
      <path d="M 0 0 C 5.9 -3.2, 7.0 -13.7, 0 -14.4 C -7.0 -13.7, -5.9 -3.2, 0 0 Z" fill="url(#leafGrad)" stroke="#3a593b" stroke-width="2"/>
      <path d="M 0 0 L 0 -13.2" stroke="#d9f0cd" stroke-opacity="0.5" stroke-width="1.5" />
    </g>
    
    <g transform="translate(150 151.0) rotate(90)" opacity="0.95" filter="url(#paint)">
      <path d="M 0 0 C 5.9 -3.2, 7.0 -13.7, 0 -14.4 C -7.0 -13.7, -5.9 -3.2, 0 0 Z" fill="url(#leafGrad)" stroke="#3a593b" stroke-width="2"/>
      <path d="M 0 0 L 0 -13.2" stroke="#d9f0cd" stroke-opacity="0.5" stroke-width="1.5" />
    </g>
    
    <g transform="translate(135 142.66666666666666) rotate(-40)" opacity="0.95" filter="url(#paint)">
      <path d="M 0 0 C 5.0 -2.6, 5.9 -11.4, 0 -12.0 C -5.9 -11.4, -5.0 -2.6, 0 0 Z" fill="url(#leafGrad)" stroke="#3a593b" stroke-width="2"/>
      <path d="M 0 0 L 0 -11.0" stroke="#d9f0cd" stroke-opacity="0.5" stroke-width="1.5" />
    </g>
    
    <g transform="translate(153 144.66666666666666) rotate(90)" opacity="0.95" filter="url(#paint)">
      <path d="M 0 0 C 5.0 -2.6, 5.9 -11.4, 0 -12.0 C -5.9 -11.4, -5.0 -2.6, 0 0 Z" fill="url(#leafGrad)" stroke="#3a593b" stroke-width="2"/>
      <path d="M 0 0 L 0 -11.0" stroke="#d9f0cd" stroke-opacity="0.5" stroke-width="1.5" />
    </g>
    
    <g transform="translate(132 136.33333333333334) rotate(-40)" opacity="0.95" filter="url(#paint)">
      <path d="M 0 0 C 4.0 -2.1, 4.7 -9.1, 0 -9.6 C -4.7 -9.1, -4.0 -2.1, 0 0 Z" fill="url(#leafGrad)" stroke="#3a593b" stroke-width="2"/>
      <path d="M 0 0 L 0 -8.8" stroke="#d9f0cd" stroke-opacity="0.5" stroke-width="1.5" />
    </g>
    
    <g transform="translate(156 138.33333333333334) rotate(90)" opacity="0.95" filter="url(#paint)">
      <path d="M 0 0 C 4.0 -2.1, 4.7 -9.1, 0 -9.6 C -4.7 -9.1, -4.0 -2.1, 0 0 Z" fill="url(#leafGrad)" stroke="#3a593b" stroke-width="2"/>
      <path d="M 0 0 L 0 -8.8" stroke="#d9f0cd" stroke-opacity="0.5" stroke-width="1.5" />
    </g>
    
<path d="M128 188 C 118 174, 128 148.7, 128 130.0" stroke="url(#stemGrad)" stroke-width="4.2" fill="none" stroke-linecap="round"/>
    <g transform="translate(128 158.33333333333334) rotate(-65)" opacity="0.95" filter="url(#paint)">
      <path d="M 0 0 C 7.9 -4.2, 9.4 -18.2, 0 -19.2 C -9.4 -18.2, -7.9 -4.2, 0 0 Z" fill="url(#leafGrad)" stroke="#3a593b" stroke-width="2"/>
      <path d="M 0 0 L 0 -17.7" stroke="#d9f0cd" stroke-opacity="0.5" stroke-width="1.5" />
    </g>
    
    <g transform="translate(128 160.33333333333334) rotate(65)" opacity="0.95" filter="url(#paint)">
      <path d="M 0 0 C 7.9 -4.2, 9.4 -18.2, 0 -19.2 C -9.4 -18.2, -7.9 -4.2, 0 0 Z" fill="url(#leafGrad)" stroke="#3a593b" stroke-width="2"/>
      <path d="M 0 0 L 0 -17.7" stroke="#d9f0cd" stroke-opacity="0.5" stroke-width="1.5" />
    </g>
    
    <g transform="translate(125 152.66666666666666) rotate(-65)" opacity="0.95" filter="url(#paint)">
      <path d="M 0 0 C 6.9 -3.7, 8.2 -16.0, 0 -16.8 C -8.2 -16.0, -6.9 -3.7, 0 0 Z" fill="url(#leafGrad)" stroke="#3a593b" stroke-width="2"/>
      <path d="M 0 0 L 0 -15.5" stroke="#d9f0cd" stroke-opacity="0.5" stroke-width="1.5" />
    </g>
    
    <g transform="translate(131 154.66666666666666) rotate(65)" opacity="0.95" filter="url(#paint)">
      <path d="M 0 0 C 6.9 -3.7, 8.2 -16.0, 0 -16.8 C -8.2 -16.0, -6.9 -3.7, 0 0 Z" fill="url(#leafGrad)" stroke="#3a593b" stroke-width="2"/>
      <path d="M 0 0 L 0 -15.5" stroke="#d9f0cd" stroke-opacity="0.5" stroke-width="1.5" />
    </g>
    
    <g transform="translate(122 147.0) rotate(-65)" opacity="0.95" filter="url(#paint)">
      <path d="M 0 0 C 5.9 -3.2, 7.0 -13.7, 0 -14.4 C -7.0 -13.7, -5.9 -3.2, 0 0 Z" fill="url(#leafGrad)" stroke="#3a593b" stroke-width="2"/>
      <path d="M 0 0 L 0 -13.2" stroke="#d9f0cd" stroke-opacity="0.5" stroke-width="1.5" />
    </g>
    
    <g transform="translate(134 149.0) rotate(65)" opacity="0.95" filter="url(#paint)">
      <path d="M 0 0 C 5.9 -3.2, 7.0 -13.7, 0 -14.4 C -7.0 -13.7, -5.9 -3.2, 0 0 Z" fill="url(#leafGrad)" stroke="#3a593b" stroke-width="2"/>
      <path d="M 0 0 L 0 -13.2" stroke="#d9f0cd" stroke-opacity="0.5" stroke-width="1.5" />
    </g>
    
    <g transform="translate(119 141.33333333333334) rotate(-65)" opacity="0.95" filter="url(#paint)">
      <path d="M 0 0 C 5.0 -2.6, 5.9 -11.4, 0 -12.0 C -5.9 -11.4, -5.0 -2.6, 0 0 Z" fill="url(#leafGrad)" stroke="#3a593b" stroke-width="2"/>
      <path d="M 0 0 L 0 -11.0" stroke="#d9f0cd" stroke-opacity="0.5" stroke-width="1.5" />
    </g>
    
    <g transform="translate(137 143.33333333333334) rotate(65)" opacity="0.95" filter="url(#paint)">
      <path d="M 0 0 C 5.0 -2.6, 5.9 -11.4, 0 -12.0 C -5.9 -11.4, -5.0 -2.6, 0 0 Z" fill="url(#leafGrad)" stroke="#3a593b" stroke-width="2"/>
      <path d="M 0 0 L 0 -11.0" stroke="#d9f0cd" stroke-opacity="0.5" stroke-width="1.5" />
    </g>
    
    <g transform="translate(116 135.66666666666666) rotate(-65)" opacity="0.95" filter="url(#paint)">
      <path d="M 0 0 C 4.0 -2.1, 4.7 -9.1, 0 -9.6 C -4.7 -9.1, -4.0 -2.1, 0 0 Z" fill="url(#leafGrad)" stroke="#3a593b" stroke-width="2"/>
      <path d="M 0 0 L 0 -8.8" stroke="#d9f0cd" stroke-opacity="0.5" stroke-width="1.5" />
    </g>
    
    <g transform="translate(140 137.66666666666666) rotate(65)" opacity="0.95" filter="url(#paint)">
      <path d="M 0 0 C 4.0 -2.1, 4.7 -9.1, 0 -9.6 C -4.7 -9.1, -4.0 -2.1, 0 0 Z" fill="url(#leafGrad)" stroke="#3a593b" stroke-width="2"/>
      <path d="M 0 0 L 0 -8.8" stroke="#d9f0cd" stroke-opacity="0.5" stroke-width="1.5" />
    </g>
    
    </svg>