<svg xmlns="http://www.w3.org/2000/svg" viewBox="0 0 192 256">
    <defs>
      <linearGradient id="metal" x1="0" y1="0" x2="1" y2="1"><stop offset="0%" stop-color="#74808d"/><stop offset="100%" stop-color="#3f4a54"/></linearGradient>
      <radialGradient id="light" cx="50%" cy="45%" r="65%"><stop offset="0%" stop-color="#fff9db"/><stop offset="65%" stop-color="#f1d67b"/><stop offset="100%" stop-color="#f1d67b" stop-opacity="0"/></radialGradient>
      <filter id="shadow"><feDropShadow dx="0" dy="5" stdDeviation="4" flood-opacity="0.2"/></filter>
      <filter id="paint"><feTurbulence type="fractalNoise" baseFrequency="0.018" numOctaves="1" seed="9"/><feDisplacementMap in="SourceGraphic" scale="0.8"/></filter>
    </defs>
    <g filter="url(#shadow)">
      <path d="M96 24 C88 24, 82 30, 82 38 C82 53, 95 58, 96 72" stroke="url(#metal)" stroke-width="8" fill="none" stroke-linecap="round"/>
      <path d="M61 80 L131 80 L142 100 L142 174 C142 186, 132 196, 120 196 L72 196 C60 196, 50 186, 50 174 L50 100 Z" fill="#34404a" stroke="#26313a" stroke-width="2" filter="url(#paint)"/>
      <path d="M72 92 L120 92 C126 92, 130 96, 130 102 L130 170 C130 176, 126 180, 120 180 L72 180 C66 180, 62 176, 62 170 L62 102 C62 96, 66 92, 72 92 Z" fill="#f6efd0" opacity="0.24"/>
      <ellipse cx="96" cy="136" rx="40" ry="54" fill="url(#light)"/>
      <path d="M90 128 C90 116, 95 108, 102 100 C108 108, 112 116, 112 128 C112 141, 104 148, 101 157 C96 152, 90 143, 90 128 Z" fill="#fff2b6"/>
      <path d="M61 80 L72 58 L120 58 L131 80" fill="url(#metal)" stroke="#2c3640" stroke-width="2"/>
      <path d="M74 196 L118 196 L112 220 L80 220 Z" fill="#606b76" stroke="#3a4550" stroke-width="2"/>
    </g>
    </svg>