<svg xmlns="http://www.w3.org/2000/svg" viewBox="0 0 256 224">
    <defs><filter id="shadow"><feDropShadow dx="0" dy="4" stdDeviation="4" flood-opacity="0.18"/></filter>
    <filter id="paint"><feTurbulence type="fractalNoise" baseFrequency="0.02" numOctaves="1" seed="10"/><feDisplacementMap in="SourceGraphic" scale="0.7"/></filter></defs>
    <ellipse cx="128" cy="186" rx="104" ry="24" fill="#415a41" opacity="0.09"/>
    <g filter="url(#shadow)" filter2="url(#paint)">
        <g transform="translate(54 128) rotate(-8)">
          <ellipse cx="0" cy="0" rx="40" ry="18" fill="#c7c4ba" stroke="#89867d" stroke-width="2"/>
          <path d="M-20.0 -1.8 C-8.0 -9.0, 8.0 -9.9, 18.0 -1.4" stroke="#eee9dd" stroke-width="2" opacity="0.55" fill="none"/>
        </g>
        <g transform="translate(120 96) rotate(4)">
          <ellipse cx="0" cy="0" rx="46" ry="20" fill="#c7c4ba" stroke="#89867d" stroke-width="2"/>
          <path d="M-23.0 -2.0 C-9.2 -10.0, 9.2 -11.0, 20.7 -1.6" stroke="#eee9dd" stroke-width="2" opacity="0.55" fill="none"/>
        </g>
        <g transform="translate(193 132) rotate(-2)">
          <ellipse cx="0" cy="0" rx="44" ry="18" fill="#c7c4ba" stroke="#89867d" stroke-width="2"/>
          <path d="M-22.0 -1.8 C-8.8 -9.0, 8.8 -9.9, 19.8 -1.4" stroke="#eee9dd" stroke-width="2" opacity="0.55" fill="none"/>
        </g>
        <g transform="translate(96 154) rotate(8)">
          <ellipse cx="0" cy="0" rx="38" ry="16" fill="#c7c4ba" stroke="#89867d" stroke-width="2"/>
          <path d="M-19.0 -1.6 C-7.6 -8.0, 7.6 -8.8, 17.1 -1.3" stroke="#eee9dd" stroke-width="2" opacity="0.55" fill="none"/>
        </g>
        <g transform="translate(158 172) rotate(-5)">
          <ellipse cx="0" cy="0" rx="52" ry="20" fill="#c7c4ba" stroke="#89867d" stroke-width="2"/>
          <path d="M-26.0 -2.0 C-10.4 -10.0, 10.4 -11.0, 23.4 -1.6" stroke="#eee9dd" stroke-width="2" opacity="0.55" fill="none"/>
        </g></g></svg>