<svg xmlns="http://www.w3.org/2000/svg" viewBox="0 0 256 256">
    
    <defs>
      <linearGradient id="potBody" x1="0" y1="0" x2="1" y2="1">
        <stop offset="0%" stop-color="#c97b4a"/>
        <stop offset="100%" stop-color="#8f5334"/>
      </linearGradient>
      <linearGradient id="potLip" x1="0" y1="0" x2="1" y2="1">
        <stop offset="0%" stop-color="#e0a071"/>
        <stop offset="100%" stop-color="#a8623f"/>
      </linearGradient>
      <linearGradient id="soilGrad" x1="0" y1="0" x2="0" y2="1">
        <stop offset="0%" stop-color="#6c4c3b"/>
        <stop offset="100%" stop-color="#4b3025"/>
      </linearGradient>
      <linearGradient id="leafGrad" x1="0" y1="0" x2="0.8" y2="1">
        <stop offset="0%" stop-color="#8ecf7a"/>
        <stop offset="100%" stop-color="#447a42"/>
      </linearGradient>
      <linearGradient id="leafGradDark" x1="0" y1="0" x2="0.8" y2="1">
        <stop offset="0%" stop-color="#6cab67"/>
        <stop offset="100%" stop-color="#2e5b31"/>
      </linearGradient>
      <linearGradient id="stemGrad" x1="0" y1="0" x2="0" y2="1">
        <stop offset="0%" stop-color="#6b8e52"/>
        <stop offset="100%" stop-color="#3d5a31"/>
      </linearGradient>
      <linearGradient id="goldGlow" x1="0" y1="0" x2="1" y2="1">
        <stop offset="0%" stop-color="#fff6c7"/>
        <stop offset="100%" stop-color="#f4c85d"/>
      </linearGradient>
      <filter id="paint" x="-20%" y="-20%" width="140%" height="140%">
        <feTurbulence type="fractalNoise" baseFrequency="0.9" numOctaves="1" seed="7" result="noise"/>
        <feDisplacementMap in="SourceGraphic" in2="noise" scale="0.9" xChannelSelector="R" yChannelSelector="G"/>
      </filter>
      <filter id="softShadow" x="-40%" y="-40%" width="180%" height="180%">
        <feDropShadow dx="0" dy="4" stdDeviation="4" flood-color="#2a2019" flood-opacity="0.18"/>
      </filter>
      <filter id="rareGlow" x="-60%" y="-60%" width="220%" height="220%">
        <feGaussianBlur stdDeviation="6" result="blur"/>
      </filter>
      <radialGradient id="paperVignette" cx="50%" cy="35%" r="90%">
        <stop offset="0%" stop-color="#ffffff" stop-opacity="0.05"/>
        <stop offset="100%" stop-color="#9bb39a" stop-opacity="0.08"/>
      </radialGradient>
      
    </defs>
    
    
    
    <g filter="url(#softShadow)">
      <ellipse cx="128" cy="232" rx="48" ry="10" fill="#2b241f" opacity="0.12"/>
      <path d="M82 185 C88 178, 168 178, 174 185 L166 228 C165 234, 91 234, 90 228 Z" fill="url(#potBody)" stroke="#7a4730" stroke-width="2"/>
      <ellipse cx="128" cy="185" rx="47" ry="10" fill="url(#potLip)" stroke="#8c5437" stroke-width="2"/>
      <ellipse cx="128" cy="188" rx="39" ry="6.8" fill="url(#soilGrad)" opacity="0.96"/>
      <path d="M94 189 C107 185, 119 193, 130 189 C142 185, 152 191, 163 188" stroke="#7a5c4b" stroke-width="1.2" opacity="0.45" fill="none"/>
    </g>
    
<path d="M128 188 C114 166, 112 140, 125 111 C136 89, 155 73, 176 58" stroke="#5d7b45" stroke-width="4.2" fill="none" stroke-linecap="round"/>
<path d="M128 170 C113 161, 99 147, 88 128" stroke="#5d7b45" stroke-width="4.2" fill="none" stroke-linecap="round"/>
<path d="M132 148 C148 142, 163 129, 174 112" stroke="#5d7b45" stroke-width="4.2" fill="none" stroke-linecap="round"/>

    <g transform="translate(111 171) rotate(-60)" opacity="1.0" filter="url(#paint)">
      <path d="M 0 0 C 9.4 -4.8, 11.1 -20.9, 0 -22.0 C -11.1 -20.9, -9.4 -4.8, 0 0 Z" fill="url(#leafGradDark)" stroke="#456245" stroke-width="2"/>
      <path d="M 0 0 L 0 -20.2" stroke="#d9f0cd" stroke-opacity="0.5" stroke-width="1.5" />
    </g>
    

    <g transform="translate(109 147) rotate(-22)" opacity="1.0" filter="url(#paint)">
      <path d="M 0 0 C 9.4 -4.8, 11.1 -20.9, 0 -22.0 C -11.1 -20.9, -9.4 -4.8, 0 0 Z" fill="url(#leafGradDark)" stroke="#456245" stroke-width="2"/>
      <path d="M 0 0 L 0 -20.2" stroke="#d9f0cd" stroke-opacity="0.5" stroke-width="1.5" />
    </g>
    

    <g transform="translate(125 113) rotate(-3)" opacity="1.0" filter="url(#paint)">
      <path d="M 0 0 C 9.4 -4.8, 11.1 -20.9, 0 -22.0 C -11.1 -20.9, -9.4 -4.8, 0 0 Z" fill="url(#leafGradDark)" stroke="#456245" stroke-width="2"/>
      <path d="M 0 0 L 0 -20.2" stroke="#d9f0cd" stroke-opacity="0.5" stroke-width="1.5" />
    </g>
    

    <g transform="translate(151 79) rotate(38)" opacity="1.0" filter="url(#paint)">
      <path d="M 0 0 C 9.4 -4.8, 11.1 -20.9, 0 -22.0 C -11.1 -20.9, -9.4 -4.8, 0 0 Z" fill="url(#leafGradDark)" stroke="#456245" stroke-width="2"/>
      <path d="M 0 0 L 0 -20.2" stroke="#d9f0cd" stroke-opacity="0.5" stroke-width="1.5" />
    </g>
    

    <g transform="translate(176 58) rotate(62)" opacity="1.0" filter="url(#paint)">
      <path d="M 0 0 C 9.4 -4.8, 11.1 -20.9, 0 -22.0 C -11.1 -20.9, -9.4 -4.8, 0 0 Z" fill="url(#leafGradDark)" stroke="#456245" stroke-width="2"/>
      <path d="M 0 0 L 0 -20.2" stroke="#d9f0cd" stroke-opacity="0.5" stroke-width="1.5" />
    </g>
    

    <g transform="translate(89 128) rotate(-96)" opacity="1.0" filter="url(#paint)">
      <path d="M 0 0 C 9.4 -4.8, 11.1 -20.9, 0 -22.0 C -11.1 -20.9, -9.4 -4.8, 0 0 Z" fill="url(#leafGradDark)" stroke="#456245" stroke-width="2"/>
      <path d="M 0 0 L 0 -20.2" stroke="#d9f0cd" stroke-opacity="0.5" stroke-width="1.5" />
    </g>
    

    <g transform="translate(175 112) rotate(103)" opacity="1.0" filter="url(#paint)">
      <path d="M 0 0 C 9.4 -4.8, 11.1 -20.9, 0 -22.0 C -11.1 -20.9, -9.4 -4.8, 0 0 Z" fill="url(#leafGradDark)" stroke="#456245" stroke-width="2"/>
      <path d="M 0 0 L 0 -20.2" stroke="#d9f0cd" stroke-opacity="0.5" stroke-width="1.5" />
    </g>
    

    <g transform="translate(176 58) scale(1.0)" filter="url(#paint)">
      <circle cx="0" cy="-12" r="10" fill="#d86172" stroke="#8c3644" stroke-width="2"/>
      <path d="M-8 -12 C-4 -22, 6 -21, 8 -12 C3 -17, -3 -17, -8 -12Z" fill="#ef9aaa" opacity="0.8"/>
      <path d="M-7 -9 C-1 -16, 4 -13, 7 -9 C2 -10, -3 -10, -7 -9Z" fill="#f7c2cf" opacity="0.7"/>
      <circle cx="0" cy="-12" r="3" fill="#8c3644" opacity="0.45"/>
    </g>
    

    <g transform="translate(174 112) scale(0.95)" filter="url(#paint)">
      <circle cx="0" cy="-12" r="10" fill="#d86172" stroke="#8c3644" stroke-width="2"/>
      <path d="M-8 -12 C-4 -22, 6 -21, 8 -12 C3 -17, -3 -17, -8 -12Z" fill="#ef9aaa" opacity="0.8"/>
      <path d="M-7 -9 C-1 -16, 4 -13, 7 -9 C2 -10, -3 -10, -7 -9Z" fill="#f7c2cf" opacity="0.7"/>
      <circle cx="0" cy="-12" r="3" fill="#8c3644" opacity="0.45"/>
    </g>
    
    </svg>