<svg xmlns="http://www.w3.org/2000/svg" viewBox="0 0 256 256">
    
    <defs>
      <linearGradient id="potBody" x1="0" y1="0" x2="1" y2="1">
        <stop offset="0%" stop-color="#c97b4a"/>
        <stop offset="100%" stop-color="#8f5334"/>
      </linearGradient>
      <linearGradient id="potLip" x1="0" y1="0" x2="1" y2="1">
        <stop offset="0%" stop-color="#e0a071"/>
        <stop offset="100%" stop-color="#a8623f"/>
      </linearGradient>
      <linearGradient id="soilGrad" x1="0" y1="0" x2="0" y2="1">
        <stop offset="0%" stop-color="#6c4c3b"/>
        <stop offset="100%" stop-color="#4b3025"/>
      </linearGradient>
      <linearGradient id="leafGrad" x1="0" y1="0" x2="0.8" y2="1">
        <stop offset="0%" stop-color="#8ecf7a"/>
        <stop offset="100%" stop-color="#447a42"/>
      </linearGradient>
      <linearGradient id="leafGradDark" x1="0" y1="0" x2="0.8" y2="1">
        <stop offset="0%" stop-color="#6cab67"/>
        <stop offset="100%" stop-color="#2e5b31"/>
      </linearGradient>
      <linearGradient id="stemGrad" x1="0" y1="0" x2="0" y2="1">
        <stop offset="0%" stop-color="#6b8e52"/>
        <stop offset="100%" stop-color="#3d5a31"/>
      </linearGradient>
      <linearGradient id="goldGlow" x1="0" y1="0" x2="1" y2="1">
        <stop offset="0%" stop-color="#fff6c7"/>
        <stop offset="100%" stop-color="#f4c85d"/>
      </linearGradient>
      <filter id="paint" x="-20%" y="-20%" width="140%" height="140%">
        <feTurbulence type="fractalNoise" baseFrequency="0.9" numOctaves="1" seed="7" result="noise"/>
        <feDisplacementMap in="SourceGraphic" in2="noise" scale="0.9" xChannelSelector="R" yChannelSelector="G"/>
      </filter>
      <filter id="softShadow" x="-40%" y="-40%" width="180%" height="180%">
        <feDropShadow dx="0" dy="4" stdDeviation="4" flood-color="#2a2019" flood-opacity="0.18"/>
      </filter>
      <filter id="rareGlow" x="-60%" y="-60%" width="220%" height="220%">
        <feGaussianBlur stdDeviation="6" result="blur"/>
      </filter>
      <radialGradient id="paperVignette" cx="50%" cy="35%" r="90%">
        <stop offset="0%" stop-color="#ffffff" stop-opacity="0.05"/>
        <stop offset="100%" stop-color="#9bb39a" stop-opacity="0.08"/>
      </radialGradient>
      
    </defs>
    
    
    
    <g opacity="0.45">
      <ellipse cx="128" cy="126" rx="62" ry="76" fill="url(#goldGlow)" filter="url(#rareGlow)"/>
    </g>
    

    <g filter="url(#softShadow)">
      <ellipse cx="128" cy="232" rx="48" ry="10" fill="#2b241f" opacity="0.12"/>
      <path d="M82 185 C88 178, 168 178, 174 185 L166 228 C165 234, 91 234, 90 228 Z" fill="url(#potBody)" stroke="#7a4730" stroke-width="2"/>
      <ellipse cx="128" cy="185" rx="47" ry="10" fill="url(#potLip)" stroke="#8c5437" stroke-width="2"/>
      <ellipse cx="128" cy="188" rx="39" ry="6.8" fill="url(#soilGrad)" opacity="0.96"/>
      <path d="M94 189 C107 185, 119 193, 130 189 C142 185, 152 191, 163 188" stroke="#7a5c4b" stroke-width="1.2" opacity="0.45" fill="none"/>
    </g>
    
<path d="M128 188 C112 164, 109 135, 124 102 C136 77, 159 58, 186 42" stroke="#5d7b45" stroke-width="4.2" fill="none" stroke-linecap="round"/>
<path d="M128 170 C111 159, 94 143, 80 120" stroke="#5d7b45" stroke-width="4.2" fill="none" stroke-linecap="round"/>
<path d="M132 148 C151 142, 169 128, 182 108" stroke="#5d7b45" stroke-width="4.2" fill="none" stroke-linecap="round"/>
<path d="M138 126 C152 121, 164 109, 171 92" stroke="#5d7b45" stroke-width="4.2" fill="none" stroke-linecap="round"/>

    <g transform="translate(108 171) rotate(-61)" opacity="1.0" filter="url(#paint)">
      <path d="M 0 0 C 9.9 -5.1, 11.7 -21.8, 0 -23.0 C -11.7 -21.8, -9.9 -5.1, 0 0 Z" fill="url(#leafGradDark)" stroke="#29472b" stroke-width="2"/>
      <path d="M 0 0 L 0 -21.2" stroke="#d9f0cd" stroke-opacity="0.5" stroke-width="1.5" />
    </g>
    

    <g transform="translate(106 144) rotate(-22)" opacity="1.0" filter="url(#paint)">
      <path d="M 0 0 C 9.9 -5.1, 11.7 -21.8, 0 -23.0 C -11.7 -21.8, -9.9 -5.1, 0 0 Z" fill="url(#leafGradDark)" stroke="#29472b" stroke-width="2"/>
      <path d="M 0 0 L 0 -21.2" stroke="#d9f0cd" stroke-opacity="0.5" stroke-width="1.5" />
    </g>
    

    <g transform="translate(123 103) rotate(-3)" opacity="1.0" filter="url(#paint)">
      <path d="M 0 0 C 9.9 -5.1, 11.7 -21.8, 0 -23.0 C -11.7 -21.8, -9.9 -5.1, 0 0 Z" fill="url(#leafGradDark)" stroke="#29472b" stroke-width="2"/>
      <path d="M 0 0 L 0 -21.2" stroke="#d9f0cd" stroke-opacity="0.5" stroke-width="1.5" />
    </g>
    

    <g transform="translate(154 64) rotate(35)" opacity="1.0" filter="url(#paint)">
      <path d="M 0 0 C 9.9 -5.1, 11.7 -21.8, 0 -23.0 C -11.7 -21.8, -9.9 -5.1, 0 0 Z" fill="url(#leafGradDark)" stroke="#29472b" stroke-width="2"/>
      <path d="M 0 0 L 0 -21.2" stroke="#d9f0cd" stroke-opacity="0.5" stroke-width="1.5" />
    </g>
    

    <g transform="translate(186 42) rotate(62)" opacity="1.0" filter="url(#paint)">
      <path d="M 0 0 C 9.9 -5.1, 11.7 -21.8, 0 -23.0 C -11.7 -21.8, -9.9 -5.1, 0 0 Z" fill="url(#leafGradDark)" stroke="#29472b" stroke-width="2"/>
      <path d="M 0 0 L 0 -21.2" stroke="#d9f0cd" stroke-opacity="0.5" stroke-width="1.5" />
    </g>
    

    <g transform="translate(80 120) rotate(-96)" opacity="1.0" filter="url(#paint)">
      <path d="M 0 0 C 9.9 -5.1, 11.7 -21.8, 0 -23.0 C -11.7 -21.8, -9.9 -5.1, 0 0 Z" fill="url(#leafGradDark)" stroke="#29472b" stroke-width="2"/>
      <path d="M 0 0 L 0 -21.2" stroke="#d9f0cd" stroke-opacity="0.5" stroke-width="1.5" />
    </g>
    

    <g transform="translate(183 108) rotate(103)" opacity="1.0" filter="url(#paint)">
      <path d="M 0 0 C 9.9 -5.1, 11.7 -21.8, 0 -23.0 C -11.7 -21.8, -9.9 -5.1, 0 0 Z" fill="url(#leafGradDark)" stroke="#29472b" stroke-width="2"/>
      <path d="M 0 0 L 0 -21.2" stroke="#d9f0cd" stroke-opacity="0.5" stroke-width="1.5" />
    </g>
    

    <g transform="translate(171 92) rotate(95)" opacity="1.0" filter="url(#paint)">
      <path d="M 0 0 C 9.9 -5.1, 11.7 -21.8, 0 -23.0 C -11.7 -21.8, -9.9 -5.1, 0 0 Z" fill="url(#leafGradDark)" stroke="#29472b" stroke-width="2"/>
      <path d="M 0 0 L 0 -21.2" stroke="#d9f0cd" stroke-opacity="0.5" stroke-width="1.5" />
    </g>
    

    <g transform="translate(186 42) scale(1.1)" filter="url(#paint)">
      <circle cx="0" cy="-12" r="10" fill="#d86172" stroke="#8c3644" stroke-width="2"/>
      <path d="M-8 -12 C-4 -22, 6 -21, 8 -12 C3 -17, -3 -17, -8 -12Z" fill="#ef9aaa" opacity="0.8"/>
      <path d="M-7 -9 C-1 -16, 4 -13, 7 -9 C2 -10, -3 -10, -7 -9Z" fill="#f7c2cf" opacity="0.7"/>
      <circle cx="0" cy="-12" r="3" fill="#8c3644" opacity="0.45"/>
    </g>
    

    <g transform="translate(182 108) scale(1.05)" filter="url(#paint)">
      <circle cx="0" cy="-12" r="10" fill="#d86172" stroke="#8c3644" stroke-width="2"/>
      <path d="M-8 -12 C-4 -22, 6 -21, 8 -12 C3 -17, -3 -17, -8 -12Z" fill="#ef9aaa" opacity="0.8"/>
      <path d="M-7 -9 C-1 -16, 4 -13, 7 -9 C2 -10, -3 -10, -7 -9Z" fill="#f7c2cf" opacity="0.7"/>
      <circle cx="0" cy="-12" r="3" fill="#8c3644" opacity="0.45"/>
    </g>
    

    <g transform="translate(171 92) scale(0.98)" filter="url(#paint)">
      <circle cx="0" cy="-12" r="10" fill="#d86172" stroke="#8c3644" stroke-width="2"/>
      <path d="M-8 -12 C-4 -22, 6 -21, 8 -12 C3 -17, -3 -17, -8 -12Z" fill="#ef9aaa" opacity="0.8"/>
      <path d="M-7 -9 C-1 -16, 4 -13, 7 -9 C2 -10, -3 -10, -7 -9Z" fill="#f7c2cf" opacity="0.7"/>
      <circle cx="0" cy="-12" r="3" fill="#8c3644" opacity="0.45"/>
    </g>
    

    <g opacity="0.9">
      <path d="M 193 36.2 L 193 39.8 M 191.2 38 L 194.8 38" stroke="#ffe79a" stroke-width="0.7200000000000001" stroke-linecap="round"/>
      <path d="M 191.7 36.7 L 194.3 39.3 M 194.3 36.7 L 191.7 39.3" stroke="#ffe79a" stroke-width="0.49500000000000005" stroke-linecap="round" opacity="0.65"/>
    </g>
    

    <g opacity="0.9">
      <path d="M 189 104.2 L 189 107.8 M 187.2 106 L 190.8 106" stroke="#ffe79a" stroke-width="0.7200000000000001" stroke-linecap="round"/>
      <path d="M 187.7 104.7 L 190.3 107.3 M 190.3 104.7 L 187.7 107.3" stroke="#ffe79a" stroke-width="0.49500000000000005" stroke-linecap="round" opacity="0.65"/>
    </g>
    

    <g opacity="0.9">
      <path d="M 68 108.2 L 68 111.8 M 66.2 110 L 69.8 110" stroke="#ffe79a" stroke-width="0.7200000000000001" stroke-linecap="round"/>
      <path d="M 66.7 108.7 L 69.3 111.3 M 69.3 108.7 L 66.7 111.3" stroke="#ffe79a" stroke-width="0.49500000000000005" stroke-linecap="round" opacity="0.65"/>
    </g>
    
    </svg>