<svg xmlns="http://www.w3.org/2000/svg" viewBox="0 0 640 360">
        <defs>
          <linearGradient id="sky" x1="0" y1="0" x2="0" y2="1"><stop offset="0%" stop-color="#1e294a"/><stop offset="100%" stop-color="#456279"/></linearGradient>
          <radialGradient id="lampGlow" cx="73%" cy="62%" r="28%"><stop offset="0%" stop-color="#fff0b0"/><stop offset="100%" stop-color="#fff0b0" stop-opacity="0"/></radialGradient>
          <filter id="paperTex"><feTurbulence type="fractalNoise" baseFrequency="0.012" numOctaves="2" seed="17"/></filter>
        </defs>
        <rect width="640" height="360" fill="url(#sky)"/>
        <circle cx="524" cy="72" r="28" fill="#fff8dd"/><circle cx="524" cy="72" r="82" fill="#fff8dd" opacity="0.12"/>
        <path d="M0 218 C100 188, 230 197, 324 222 C423 248, 550 249, 640 218 L640 360 L0 360 Z" fill="#5f7767"/>
        <path d="M0 265 C106 247, 216 252, 312 278 C406 303, 520 304, 640 272 L640 360 L0 360 Z" fill="#394b42"/>
        <g opacity="0.9">
          <rect x="352" y="198" width="190" height="16" rx="8" fill="#7f5a45"/>
          <path d="M374 214 L520 214 L504 296 L390 296 Z" fill="#654230"/>
          <rect x="410" y="160" width="64" height="50" rx="4" fill="#403845"/><rect x="418" y="168" width="48" height="34" rx="3" fill="#7aa4b6"/>
          <rect x="476" y="172" width="22" height="38" rx="2" fill="#ceb58e"/>
          <path d="M512 148 L531 148 L538 172 L505 172 Z" fill="#c8b898"/>
          <ellipse cx="523" cy="175" rx="76" ry="64" fill="url(#lampGlow)"/>
          <circle cx="523" cy="174" r="8" fill="#fff2bb"/>
        </g>
        <g opacity="0.16" filter="url(#paperTex)"><rect width="640" height="360" fill="#ffffff"/></g>
        </svg>