<svg xmlns="http://www.w3.org/2000/svg" viewBox="0 0 512 384" width="512" height="384" focusable="false" aria-hidden="true">
        <title>Garden Night</title><defs>
          <linearGradient id="bg_verdant_dusk_default_fireflies__skyNight" x1="0" y1="0" x2="0" y2="1">
            <stop offset="0%" stop-color="#213056" />
            <stop offset="65%" stop-color="#385475" />
            <stop offset="100%" stop-color="#6f8aa1" />
          </linearGradient>
          <radialGradient id="bg_verdant_dusk_default_fireflies__moonGlow" cx="75%" cy="22%" r="18%">
            <stop offset="0%" stop-color="#fffbe8" stop-opacity="1" />
            <stop offset="100%" stop-color="#fffbe8" stop-opacity="0" />
          </radialGradient>
          <filter id="bg_verdant_dusk_default_fireflies__paperTex">
            <feTurbulence type="fractalNoise" baseFrequency="0.015" numOctaves="2" seed="6" />
          </filter>
        </defs>
        <rect width="512" height="384" fill="url(#bg_verdant_dusk_default_fireflies__skyNight)" />
        <circle cx="394" cy="74" r="28" fill="#fff7d4" />
        <circle cx="394" cy="74" r="74" fill="url(#bg_verdant_dusk_default_fireflies__moonGlow)" />
        <path d="M0 210 C84 176, 157 182, 251 210 C314 228, 381 230, 512 187 L512 384 L0 384 Z" fill="#7a9587" />
        <path d="M0 248 C117 219, 205 227, 305 257 C382 281, 435 279, 512 243 L512 384 L0 384 Z" fill="#526a5e" />
        <path d="M0 291 C94 267, 176 272, 264 304 C339 332, 421 326, 512 291 L512 384 L0 384 Z" fill="#32453a" />
        <g opacity="0.9">
          <circle cx="68" cy="50" r="1.8" fill="#fff7db" /><circle cx="105" cy="89" r="1.5" fill="#fff7db" />
          <circle cx="180" cy="43" r="1.2" fill="#fff7db" /><circle cx="247" cy="91" r="1.5" fill="#fff7db" />
          <circle cx="458" cy="46" r="1.7" fill="#fff7db" /><circle cx="436" cy="113" r="1.2" fill="#fff7db" />
        </g>
        <g opacity="0.18" filter="url(#bg_verdant_dusk_default_fireflies__paperTex)"><rect width="512" height="384" fill="#ffffff" /></g>
        <g id="default_fireflies__generated_overlay"><circle cx="72" cy="128" r="3.5" fill="#ffe79d" opacity="0.85" /><circle cx="72" cy="128" r="8" fill="#fff4c9" opacity="0.25" /><circle cx="140" cy="118" r="3.5" fill="#ffe79d" opacity="0.85" /><circle cx="140" cy="118" r="8" fill="#fff4c9" opacity="0.25" /><circle cx="238" cy="108" r="3.5" fill="#ffe79d" opacity="0.85" /><circle cx="238" cy="108" r="8" fill="#fff4c9" opacity="0.25" /><circle cx="318" cy="136" r="3.5" fill="#ffe79d" opacity="0.85" /><circle cx="318" cy="136" r="8" fill="#fff4c9" opacity="0.25" /><circle cx="420" cy="112" r="3.5" fill="#ffe79d" opacity="0.85" /><circle cx="420" cy="112" r="8" fill="#fff4c9" opacity="0.25" /></g></svg>
