<svg xmlns="http://www.w3.org/2000/svg" viewBox="0 0 256 256">
    
    <defs>
      <linearGradient id="potBody" x1="0" y1="0" x2="1" y2="1">
        <stop offset="0%" stop-color="#c97b4a"/>
        <stop offset="100%" stop-color="#8f5334"/>
      </linearGradient>
      <linearGradient id="potLip" x1="0" y1="0" x2="1" y2="1">
        <stop offset="0%" stop-color="#e0a071"/>
        <stop offset="100%" stop-color="#a8623f"/>
      </linearGradient>
      <linearGradient id="soilGrad" x1="0" y1="0" x2="0" y2="1">
        <stop offset="0%" stop-color="#6c4c3b"/>
        <stop offset="100%" stop-color="#4b3025"/>
      </linearGradient>
      <linearGradient id="leafGrad" x1="0" y1="0" x2="0.8" y2="1">
        <stop offset="0%" stop-color="#8ecf7a"/>
        <stop offset="100%" stop-color="#447a42"/>
      </linearGradient>
      <linearGradient id="leafGradDark" x1="0" y1="0" x2="0.8" y2="1">
        <stop offset="0%" stop-color="#6cab67"/>
        <stop offset="100%" stop-color="#2e5b31"/>
      </linearGradient>
      <linearGradient id="stemGrad" x1="0" y1="0" x2="0" y2="1">
        <stop offset="0%" stop-color="#6b8e52"/>
        <stop offset="100%" stop-color="#3d5a31"/>
      </linearGradient>
      <linearGradient id="goldGlow" x1="0" y1="0" x2="1" y2="1">
        <stop offset="0%" stop-color="#fff6c7"/>
        <stop offset="100%" stop-color="#f4c85d"/>
      </linearGradient>
      <filter id="paint" x="-20%" y="-20%" width="140%" height="140%">
        <feTurbulence type="fractalNoise" baseFrequency="0.9" numOctaves="1" seed="7" result="noise"/>
        <feDisplacementMap in="SourceGraphic" in2="noise" scale="0.9" xChannelSelector="R" yChannelSelector="G"/>
      </filter>
      <filter id="softShadow" x="-40%" y="-40%" width="180%" height="180%">
        <feDropShadow dx="0" dy="4" stdDeviation="4" flood-color="#2a2019" flood-opacity="0.18"/>
      </filter>
      <filter id="rareGlow" x="-60%" y="-60%" width="220%" height="220%">
        <feGaussianBlur stdDeviation="6" result="blur"/>
      </filter>
      <radialGradient id="paperVignette" cx="50%" cy="35%" r="90%">
        <stop offset="0%" stop-color="#ffffff" stop-opacity="0.05"/>
        <stop offset="100%" stop-color="#9bb39a" stop-opacity="0.08"/>
      </radialGradient>
      
    </defs>
    
    
    
    <g opacity="0.45">
      <ellipse cx="128" cy="126" rx="62" ry="76" fill="url(#goldGlow)" filter="url(#rareGlow)"/>
    </g>
    

    <g filter="url(#softShadow)">
      <ellipse cx="128" cy="232" rx="48" ry="10" fill="#2b241f" opacity="0.12"/>
      <path d="M82 185 C88 178, 168 178, 174 185 L166 228 C165 234, 91 234, 90 228 Z" fill="url(#potBody)" stroke="#7a4730" stroke-width="2"/>
      <ellipse cx="128" cy="185" rx="47" ry="10" fill="url(#potLip)" stroke="#8c5437" stroke-width="2"/>
      <ellipse cx="128" cy="188" rx="39" ry="6.8" fill="url(#soilGrad)" opacity="0.96"/>
      <path d="M94 189 C107 185, 119 193, 130 189 C142 185, 152 191, 163 188" stroke="#7a5c4b" stroke-width="1.2" opacity="0.45" fill="none"/>
    </g>
    
<path d="M128 188 C126 160, 129 130, 128 46" stroke="url(#stemGrad)" stroke-width="5" fill="none" stroke-linecap="round"/>

    <g transform="translate(102 179) rotate(-76)" opacity="1.0" filter="url(#paint)">
      <path d="M 0 0 C 13.2 -6.8, 15.6 -29.4, 0 -31.0 C -15.6 -29.4, -13.2 -6.8, 0 0 Z" fill="url(#leafGrad)" stroke="#456245" stroke-width="2"/>
      <path d="M 0 0 L 0 -28.5" stroke="#d9f0cd" stroke-opacity="0.5" stroke-width="1.5" />
    </g>
    

    <g transform="translate(154 176) rotate(76)" opacity="1.0" filter="url(#paint)">
      <path d="M 0 0 C 13.2 -6.8, 15.6 -29.4, 0 -31.0 C -15.6 -29.4, -13.2 -6.8, 0 0 Z" fill="url(#leafGrad)" stroke="#456245" stroke-width="2"/>
      <path d="M 0 0 L 0 -28.5" stroke="#d9f0cd" stroke-opacity="0.5" stroke-width="1.5" />
    </g>
    

    <g transform="translate(108 142) rotate(-60)" opacity="1.0" filter="url(#paint)">
      <path d="M 0 0 C 11.0 -5.5, 13.0 -23.8, 0 -25.0 C -13.0 -23.8, -11.0 -5.5, 0 0 Z" fill="url(#leafGrad)" stroke="#456245" stroke-width="2"/>
      <path d="M 0 0 L 0 -23.0" stroke="#d9f0cd" stroke-opacity="0.5" stroke-width="1.5" />
    </g>
    

    <g transform="translate(149 124) rotate(60)" opacity="1.0" filter="url(#paint)">
      <path d="M 0 0 C 11.0 -5.5, 13.0 -23.8, 0 -25.0 C -13.0 -23.8, -11.0 -5.5, 0 0 Z" fill="url(#leafGrad)" stroke="#456245" stroke-width="2"/>
      <path d="M 0 0 L 0 -23.0" stroke="#d9f0cd" stroke-opacity="0.5" stroke-width="1.5" />
    </g>
    

    <g transform="translate(128 66) rotate(0.0)" opacity="1.0" filter="url(#paint)">
      <path d="M0 0 C 6.6 -4.9, 6.1 -22.9, 0 -27.0
               C -6.1 -22.9, -6.6 -4.9, 0 0 Z"
            fill="#ffe089" stroke="#cfad42" stroke-width="2"/>
    </g>
    

    <g transform="translate(128 66) rotate(25.714285714285715)" opacity="1.0" filter="url(#paint)">
      <path d="M0 0 C 6.6 -4.9, 6.1 -22.9, 0 -27.0
               C -6.1 -22.9, -6.6 -4.9, 0 0 Z"
            fill="#ffe089" stroke="#cfad42" stroke-width="2"/>
    </g>
    

    <g transform="translate(128 66) rotate(51.42857142857143)" opacity="1.0" filter="url(#paint)">
      <path d="M0 0 C 6.6 -4.9, 6.1 -22.9, 0 -27.0
               C -6.1 -22.9, -6.6 -4.9, 0 0 Z"
            fill="#ffe089" stroke="#cfad42" stroke-width="2"/>
    </g>
    

    <g transform="translate(128 66) rotate(77.14285714285714)" opacity="1.0" filter="url(#paint)">
      <path d="M0 0 C 6.6 -4.9, 6.1 -22.9, 0 -27.0
               C -6.1 -22.9, -6.6 -4.9, 0 0 Z"
            fill="#ffe089" stroke="#cfad42" stroke-width="2"/>
    </g>
    

    <g transform="translate(128 66) rotate(102.85714285714286)" opacity="1.0" filter="url(#paint)">
      <path d="M0 0 C 6.6 -4.9, 6.1 -22.9, 0 -27.0
               C -6.1 -22.9, -6.6 -4.9, 0 0 Z"
            fill="#ffe089" stroke="#cfad42" stroke-width="2"/>
    </g>
    

    <g transform="translate(128 66) rotate(128.57142857142858)" opacity="1.0" filter="url(#paint)">
      <path d="M0 0 C 6.6 -4.9, 6.1 -22.9, 0 -27.0
               C -6.1 -22.9, -6.6 -4.9, 0 0 Z"
            fill="#ffe089" stroke="#cfad42" stroke-width="2"/>
    </g>
    

    <g transform="translate(128 66) rotate(154.28571428571428)" opacity="1.0" filter="url(#paint)">
      <path d="M0 0 C 6.6 -4.9, 6.1 -22.9, 0 -27.0
               C -6.1 -22.9, -6.6 -4.9, 0 0 Z"
            fill="#ffe089" stroke="#cfad42" stroke-width="2"/>
    </g>
    

    <g transform="translate(128 66) rotate(180.0)" opacity="1.0" filter="url(#paint)">
      <path d="M0 0 C 6.6 -4.9, 6.1 -22.9, 0 -27.0
               C -6.1 -22.9, -6.6 -4.9, 0 0 Z"
            fill="#ffe089" stroke="#cfad42" stroke-width="2"/>
    </g>
    

    <g transform="translate(128 66) rotate(205.71428571428572)" opacity="1.0" filter="url(#paint)">
      <path d="M0 0 C 6.6 -4.9, 6.1 -22.9, 0 -27.0
               C -6.1 -22.9, -6.6 -4.9, 0 0 Z"
            fill="#ffe089" stroke="#cfad42" stroke-width="2"/>
    </g>
    

    <g transform="translate(128 66) rotate(231.42857142857144)" opacity="1.0" filter="url(#paint)">
      <path d="M0 0 C 6.6 -4.9, 6.1 -22.9, 0 -27.0
               C -6.1 -22.9, -6.6 -4.9, 0 0 Z"
            fill="#ffe089" stroke="#cfad42" stroke-width="2"/>
    </g>
    

    <g transform="translate(128 66) rotate(257.14285714285717)" opacity="1.0" filter="url(#paint)">
      <path d="M0 0 C 6.6 -4.9, 6.1 -22.9, 0 -27.0
               C -6.1 -22.9, -6.6 -4.9, 0 0 Z"
            fill="#ffe089" stroke="#cfad42" stroke-width="2"/>
    </g>
    

    <g transform="translate(128 66) rotate(282.8571428571429)" opacity="1.0" filter="url(#paint)">
      <path d="M0 0 C 6.6 -4.9, 6.1 -22.9, 0 -27.0
               C -6.1 -22.9, -6.6 -4.9, 0 0 Z"
            fill="#ffe089" stroke="#cfad42" stroke-width="2"/>
    </g>
    

    <g transform="translate(128 66) rotate(308.57142857142856)" opacity="1.0" filter="url(#paint)">
      <path d="M0 0 C 6.6 -4.9, 6.1 -22.9, 0 -27.0
               C -6.1 -22.9, -6.6 -4.9, 0 0 Z"
            fill="#ffe089" stroke="#cfad42" stroke-width="2"/>
    </g>
    

    <g transform="translate(128 66) rotate(334.2857142857143)" opacity="1.0" filter="url(#paint)">
      <path d="M0 0 C 6.6 -4.9, 6.1 -22.9, 0 -27.0
               C -6.1 -22.9, -6.6 -4.9, 0 0 Z"
            fill="#ffe089" stroke="#cfad42" stroke-width="2"/>
    </g>
    
<circle cx="128" cy="54" r="17" fill="#6d4a31" stroke="#573925" stroke-width="2" filter="url(#paint)"/>
<circle cx="128" cy="54" r="7" fill="#a87a50" opacity="0.75"/>

    <g opacity="0.9">
      <path d="M 102 40.2 L 102 43.8 M 100.2 42 L 103.8 42" stroke="#ffe79a" stroke-width="0.7200000000000001" stroke-linecap="round"/>
      <path d="M 100.7 40.7 L 103.3 43.3 M 103.3 40.7 L 100.7 43.3" stroke="#ffe79a" stroke-width="0.49500000000000005" stroke-linecap="round" opacity="0.65"/>
    </g>
    

    <g opacity="0.9">
      <path d="M 154 38.2 L 154 41.8 M 152.2 40 L 155.8 40" stroke="#ffe79a" stroke-width="0.7200000000000001" stroke-linecap="round"/>
      <path d="M 152.7 38.7 L 155.3 41.3 M 155.3 38.7 L 152.7 41.3" stroke="#ffe79a" stroke-width="0.49500000000000005" stroke-linecap="round" opacity="0.65"/>
    </g>
    

    <g opacity="0.9">
      <path d="M 128 20.0 L 128 24.0 M 126.0 22 L 130.0 22" stroke="#ffe79a" stroke-width="0.8" stroke-linecap="round"/>
      <path d="M 126.6 20.6 L 129.4 23.4 M 129.4 20.6 L 126.6 23.4" stroke="#ffe79a" stroke-width="0.55" stroke-linecap="round" opacity="0.65"/>
    </g>
    
    </svg>