<svg xmlns="http://www.w3.org/2000/svg" viewBox="0 0 256 256">
<defs>
  <linearGradient id="stem" x1="0" y1="0" x2="0" y2="1"><stop offset="0%" stop-color="#6b8e52"/><stop offset="100%" stop-color="#3d5a31"/></linearGradient>
  <linearGradient id="leaf" x1="0" y1="0" x2="1" y2="1"><stop offset="0%" stop-color="#90cf7c"/><stop offset="100%" stop-color="#3f6b3e"/></linearGradient>
  <filter id="paint"><feTurbulence type="fractalNoise" baseFrequency="0.02" numOctaves="1" seed="18"/><feDisplacementMap in="SourceGraphic" scale="0.9"/></filter>
</defs>
<path d="M54 238 C56 198, 72 170, 98 146 C124 121, 132 96, 130 66 C128 40, 142 24, 170 18" stroke="url(#stem)" stroke-width="6" fill="none" stroke-linecap="round"/>

    <g transform="translate(62 210) rotate(-62)" opacity="1.0" filter="url(#paint)">
      <path d="M 0 0 C 9.9 -5.3, 11.7 -22.8, 0 -24.0 C -11.7 -22.8, -9.9 -5.3, 0 0 Z" fill="url(#leaf)" stroke="#2f4d30" stroke-width="2"/>
      <path d="M 0 0 L 0 -22.1" stroke="#d9f0cd" stroke-opacity="0.5" stroke-width="1.5" />
    </g>
    

    <g transform="translate(76 178) rotate(-48)" opacity="1.0" filter="url(#paint)">
      <path d="M 0 0 C 9.9 -5.3, 11.7 -22.8, 0 -24.0 C -11.7 -22.8, -9.9 -5.3, 0 0 Z" fill="url(#leaf)" stroke="#2f4d30" stroke-width="2"/>
      <path d="M 0 0 L 0 -22.1" stroke="#d9f0cd" stroke-opacity="0.5" stroke-width="1.5" />
    </g>
    

    <g transform="translate(97 148) rotate(-20)" opacity="1.0" filter="url(#paint)">
      <path d="M 0 0 C 9.9 -5.3, 11.7 -22.8, 0 -24.0 C -11.7 -22.8, -9.9 -5.3, 0 0 Z" fill="url(#leaf)" stroke="#2f4d30" stroke-width="2"/>
      <path d="M 0 0 L 0 -22.1" stroke="#d9f0cd" stroke-opacity="0.5" stroke-width="1.5" />
    </g>
    

    <g transform="translate(120 118) rotate(18)" opacity="1.0" filter="url(#paint)">
      <path d="M 0 0 C 9.9 -5.3, 11.7 -22.8, 0 -24.0 C -11.7 -22.8, -9.9 -5.3, 0 0 Z" fill="url(#leaf)" stroke="#2f4d30" stroke-width="2"/>
      <path d="M 0 0 L 0 -22.1" stroke="#d9f0cd" stroke-opacity="0.5" stroke-width="1.5" />
    </g>
    

    <g transform="translate(130 86) rotate(44)" opacity="1.0" filter="url(#paint)">
      <path d="M 0 0 C 9.9 -5.3, 11.7 -22.8, 0 -24.0 C -11.7 -22.8, -9.9 -5.3, 0 0 Z" fill="url(#leaf)" stroke="#2f4d30" stroke-width="2"/>
      <path d="M 0 0 L 0 -22.1" stroke="#d9f0cd" stroke-opacity="0.5" stroke-width="1.5" />
    </g>
    

    <g transform="translate(170 20) rotate(76)" opacity="1.0" filter="url(#paint)">
      <path d="M 0 0 C 9.9 -5.3, 11.7 -22.8, 0 -24.0 C -11.7 -22.8, -9.9 -5.3, 0 0 Z" fill="url(#leaf)" stroke="#2f4d30" stroke-width="2"/>
      <path d="M 0 0 L 0 -22.1" stroke="#d9f0cd" stroke-opacity="0.5" stroke-width="1.5" />
    </g>
    
</svg>