<svg xmlns="http://www.w3.org/2000/svg" viewBox="0 0 256 256">
    
    <defs>
      <linearGradient id="potBody" x1="0" y1="0" x2="1" y2="1">
        <stop offset="0%" stop-color="#c97b4a"/>
        <stop offset="100%" stop-color="#8f5334"/>
      </linearGradient>
      <linearGradient id="potLip" x1="0" y1="0" x2="1" y2="1">
        <stop offset="0%" stop-color="#e0a071"/>
        <stop offset="100%" stop-color="#a8623f"/>
      </linearGradient>
      <linearGradient id="soilGrad" x1="0" y1="0" x2="0" y2="1">
        <stop offset="0%" stop-color="#6c4c3b"/>
        <stop offset="100%" stop-color="#4b3025"/>
      </linearGradient>
      <linearGradient id="leafGrad" x1="0" y1="0" x2="0.8" y2="1">
        <stop offset="0%" stop-color="#8ecf7a"/>
        <stop offset="100%" stop-color="#447a42"/>
      </linearGradient>
      <linearGradient id="leafGradDark" x1="0" y1="0" x2="0.8" y2="1">
        <stop offset="0%" stop-color="#6cab67"/>
        <stop offset="100%" stop-color="#2e5b31"/>
      </linearGradient>
      <linearGradient id="stemGrad" x1="0" y1="0" x2="0" y2="1">
        <stop offset="0%" stop-color="#6b8e52"/>
        <stop offset="100%" stop-color="#3d5a31"/>
      </linearGradient>
      <linearGradient id="goldGlow" x1="0" y1="0" x2="1" y2="1">
        <stop offset="0%" stop-color="#fff6c7"/>
        <stop offset="100%" stop-color="#f4c85d"/>
      </linearGradient>
      <filter id="paint" x="-20%" y="-20%" width="140%" height="140%">
        <feTurbulence type="fractalNoise" baseFrequency="0.9" numOctaves="1" seed="7" result="noise"/>
        <feDisplacementMap in="SourceGraphic" in2="noise" scale="0.9" xChannelSelector="R" yChannelSelector="G"/>
      </filter>
      <filter id="softShadow" x="-40%" y="-40%" width="180%" height="180%">
        <feDropShadow dx="0" dy="4" stdDeviation="4" flood-color="#2a2019" flood-opacity="0.18"/>
      </filter>
      <filter id="rareGlow" x="-60%" y="-60%" width="220%" height="220%">
        <feGaussianBlur stdDeviation="6" result="blur"/>
      </filter>
      <radialGradient id="paperVignette" cx="50%" cy="35%" r="90%">
        <stop offset="0%" stop-color="#ffffff" stop-opacity="0.05"/>
        <stop offset="100%" stop-color="#9bb39a" stop-opacity="0.08"/>
      </radialGradient>
      
    </defs>
    
    
    
    <g opacity="0.45">
      <ellipse cx="128" cy="126" rx="62" ry="76" fill="url(#goldGlow)" filter="url(#rareGlow)"/>
    </g>
    

    <g filter="url(#softShadow)">
      <ellipse cx="128" cy="232" rx="48" ry="10" fill="#2b241f" opacity="0.12"/>
      <path d="M82 185 C88 178, 168 178, 174 185 L166 228 C165 234, 91 234, 90 228 Z" fill="url(#potBody)" stroke="#7a4730" stroke-width="2"/>
      <ellipse cx="128" cy="185" rx="47" ry="10" fill="url(#potLip)" stroke="#8c5437" stroke-width="2"/>
      <ellipse cx="128" cy="188" rx="39" ry="6.8" fill="url(#soilGrad)" opacity="0.96"/>
      <path d="M94 189 C107 185, 119 193, 130 189 C142 185, 152 191, 163 188" stroke="#7a5c4b" stroke-width="1.2" opacity="0.45" fill="none"/>
    </g>
    
<path d="M128 188 C113 171, 114 135, 134 98" stroke="#654833" stroke-width="14" fill="none" stroke-linecap="round"/>
<path d="M128 160 C107 150, 95 135, 90 116" stroke="#654833" stroke-width="8" fill="none" stroke-linecap="round"/>
<path d="M132 145 C154 137, 168 122, 172 104" stroke="#654833" stroke-width="8" fill="none" stroke-linecap="round"/>

    <g transform="translate(128 112) rotate(0)" opacity="1.0" filter="url(#paint)">
      <path d="M 0 0 C 23.1 -11.9, 27.3 -51.3, 0 -54.0 C -27.3 -51.3, -23.1 -11.9, 0 0 Z" fill="url(#leafGradDark)" stroke="#254927" stroke-width="2"/>
      <path d="M 0 0 L 0 -49.7" stroke="#d9f0cd" stroke-opacity="0.5" stroke-width="1.5" />
    </g>
    

    <g transform="translate(101 129) rotate(-28)" opacity="1.0" filter="url(#paint)">
      <path d="M 0 0 C 17.6 -8.8, 20.8 -38.0, 0 -40.0 C -20.8 -38.0, -17.6 -8.8, 0 0 Z" fill="url(#leafGradDark)" stroke="#254927" stroke-width="2"/>
      <path d="M 0 0 L 0 -36.8" stroke="#d9f0cd" stroke-opacity="0.5" stroke-width="1.5" />
    </g>
    

    <g transform="translate(157 121) rotate(28)" opacity="1.0" filter="url(#paint)">
      <path d="M 0 0 C 17.6 -8.4, 20.8 -36.1, 0 -38.0 C -20.8 -36.1, -17.6 -8.4, 0 0 Z" fill="url(#leafGradDark)" stroke="#254927" stroke-width="2"/>
      <path d="M 0 0 L 0 -35.0" stroke="#d9f0cd" stroke-opacity="0.5" stroke-width="1.5" />
    </g>
    

    <g transform="translate(118 86) rotate(-12)" opacity="1.0" filter="url(#paint)">
      <path d="M 0 0 C 14.3 -7.5, 16.9 -32.3, 0 -34.0 C -16.9 -32.3, -14.3 -7.5, 0 0 Z" fill="url(#leafGradDark)" stroke="#254927" stroke-width="2"/>
      <path d="M 0 0 L 0 -31.3" stroke="#d9f0cd" stroke-opacity="0.5" stroke-width="1.5" />
    </g>
    

    <g transform="translate(146 91) rotate(18)" opacity="1.0" filter="url(#paint)">
      <path d="M 0 0 C 14.9 -7.5, 17.6 -32.3, 0 -34.0 C -17.6 -32.3, -14.9 -7.5, 0 0 Z" fill="url(#leafGradDark)" stroke="#254927" stroke-width="2"/>
      <path d="M 0 0 L 0 -31.3" stroke="#d9f0cd" stroke-opacity="0.5" stroke-width="1.5" />
    </g>
    

    <g transform="translate(118 92) rotate(0.0)" opacity="1.0" filter="url(#paint)">
      <path d="M0 0 C 5.3 -3.2, 4.8 -15.0, 0 -17.6
               C -4.8 -15.0, -5.3 -3.2, 0 0 Z"
            fill="#fbe0ea" stroke="#9a6282" stroke-width="2"/>
    </g>
    

    <g transform="translate(118 92) rotate(72.0)" opacity="1.0" filter="url(#paint)">
      <path d="M0 0 C 5.3 -3.2, 4.8 -15.0, 0 -17.6
               C -4.8 -15.0, -5.3 -3.2, 0 0 Z"
            fill="#fbe0ea" stroke="#9a6282" stroke-width="2"/>
    </g>
    

    <g transform="translate(118 92) rotate(144.0)" opacity="1.0" filter="url(#paint)">
      <path d="M0 0 C 5.3 -3.2, 4.8 -15.0, 0 -17.6
               C -4.8 -15.0, -5.3 -3.2, 0 0 Z"
            fill="#fbe0ea" stroke="#9a6282" stroke-width="2"/>
    </g>
    

    <g transform="translate(118 92) rotate(216.0)" opacity="1.0" filter="url(#paint)">
      <path d="M0 0 C 5.3 -3.2, 4.8 -15.0, 0 -17.6
               C -4.8 -15.0, -5.3 -3.2, 0 0 Z"
            fill="#fbe0ea" stroke="#9a6282" stroke-width="2"/>
    </g>
    

    <g transform="translate(118 92) rotate(288.0)" opacity="1.0" filter="url(#paint)">
      <path d="M0 0 C 5.3 -3.2, 4.8 -15.0, 0 -17.6
               C -4.8 -15.0, -5.3 -3.2, 0 0 Z"
            fill="#fbe0ea" stroke="#9a6282" stroke-width="2"/>
    </g>
    
<circle cx="118" cy="81.0" r="4.6" fill="#ffe28d" stroke="#c7a75b" stroke-width="1.2"/>

    <g transform="translate(141 89) rotate(0.0)" opacity="1.0" filter="url(#paint)">
      <path d="M0 0 C 5.3 -3.2, 4.8 -15.0, 0 -17.6
               C -4.8 -15.0, -5.3 -3.2, 0 0 Z"
            fill="#fbe0ea" stroke="#9a6282" stroke-width="2"/>
    </g>
    

    <g transform="translate(141 89) rotate(72.0)" opacity="1.0" filter="url(#paint)">
      <path d="M0 0 C 5.3 -3.2, 4.8 -15.0, 0 -17.6
               C -4.8 -15.0, -5.3 -3.2, 0 0 Z"
            fill="#fbe0ea" stroke="#9a6282" stroke-width="2"/>
    </g>
    

    <g transform="translate(141 89) rotate(144.0)" opacity="1.0" filter="url(#paint)">
      <path d="M0 0 C 5.3 -3.2, 4.8 -15.0, 0 -17.6
               C -4.8 -15.0, -5.3 -3.2, 0 0 Z"
            fill="#fbe0ea" stroke="#9a6282" stroke-width="2"/>
    </g>
    

    <g transform="translate(141 89) rotate(216.0)" opacity="1.0" filter="url(#paint)">
      <path d="M0 0 C 5.3 -3.2, 4.8 -15.0, 0 -17.6
               C -4.8 -15.0, -5.3 -3.2, 0 0 Z"
            fill="#fbe0ea" stroke="#9a6282" stroke-width="2"/>
    </g>
    

    <g transform="translate(141 89) rotate(288.0)" opacity="1.0" filter="url(#paint)">
      <path d="M0 0 C 5.3 -3.2, 4.8 -15.0, 0 -17.6
               C -4.8 -15.0, -5.3 -3.2, 0 0 Z"
            fill="#fbe0ea" stroke="#9a6282" stroke-width="2"/>
    </g>
    
<circle cx="141" cy="78.0" r="4.6" fill="#ffe28d" stroke="#c7a75b" stroke-width="1.2"/>

    <g transform="translate(99 122) rotate(0.0)" opacity="1.0" filter="url(#paint)">
      <path d="M0 0 C 4.8 -2.9, 4.4 -13.6, 0 -16.0
               C -4.4 -13.6, -4.8 -2.9, 0 0 Z"
            fill="#fbe0ea" stroke="#9a6282" stroke-width="2"/>
    </g>
    

    <g transform="translate(99 122) rotate(72.0)" opacity="1.0" filter="url(#paint)">
      <path d="M0 0 C 4.8 -2.9, 4.4 -13.6, 0 -16.0
               C -4.4 -13.6, -4.8 -2.9, 0 0 Z"
            fill="#fbe0ea" stroke="#9a6282" stroke-width="2"/>
    </g>
    

    <g transform="translate(99 122) rotate(144.0)" opacity="1.0" filter="url(#paint)">
      <path d="M0 0 C 4.8 -2.9, 4.4 -13.6, 0 -16.0
               C -4.4 -13.6, -4.8 -2.9, 0 0 Z"
            fill="#fbe0ea" stroke="#9a6282" stroke-width="2"/>
    </g>
    

    <g transform="translate(99 122) rotate(216.0)" opacity="1.0" filter="url(#paint)">
      <path d="M0 0 C 4.8 -2.9, 4.4 -13.6, 0 -16.0
               C -4.4 -13.6, -4.8 -2.9, 0 0 Z"
            fill="#fbe0ea" stroke="#9a6282" stroke-width="2"/>
    </g>
    

    <g transform="translate(99 122) rotate(288.0)" opacity="1.0" filter="url(#paint)">
      <path d="M0 0 C 4.8 -2.9, 4.4 -13.6, 0 -16.0
               C -4.4 -13.6, -4.8 -2.9, 0 0 Z"
            fill="#fbe0ea" stroke="#9a6282" stroke-width="2"/>
    </g>
    
<circle cx="99" cy="112.0" r="4.2" fill="#ffe28d" stroke="#c7a75b" stroke-width="1.2"/>

    <g transform="translate(160 114) rotate(0.0)" opacity="1.0" filter="url(#paint)">
      <path d="M0 0 C 4.8 -2.9, 4.4 -13.6, 0 -16.0
               C -4.4 -13.6, -4.8 -2.9, 0 0 Z"
            fill="#fbe0ea" stroke="#9a6282" stroke-width="2"/>
    </g>
    

    <g transform="translate(160 114) rotate(72.0)" opacity="1.0" filter="url(#paint)">
      <path d="M0 0 C 4.8 -2.9, 4.4 -13.6, 0 -16.0
               C -4.4 -13.6, -4.8 -2.9, 0 0 Z"
            fill="#fbe0ea" stroke="#9a6282" stroke-width="2"/>
    </g>
    

    <g transform="translate(160 114) rotate(144.0)" opacity="1.0" filter="url(#paint)">
      <path d="M0 0 C 4.8 -2.9, 4.4 -13.6, 0 -16.0
               C -4.4 -13.6, -4.8 -2.9, 0 0 Z"
            fill="#fbe0ea" stroke="#9a6282" stroke-width="2"/>
    </g>
    

    <g transform="translate(160 114) rotate(216.0)" opacity="1.0" filter="url(#paint)">
      <path d="M0 0 C 4.8 -2.9, 4.4 -13.6, 0 -16.0
               C -4.4 -13.6, -4.8 -2.9, 0 0 Z"
            fill="#fbe0ea" stroke="#9a6282" stroke-width="2"/>
    </g>
    

    <g transform="translate(160 114) rotate(288.0)" opacity="1.0" filter="url(#paint)">
      <path d="M0 0 C 4.8 -2.9, 4.4 -13.6, 0 -16.0
               C -4.4 -13.6, -4.8 -2.9, 0 0 Z"
            fill="#fbe0ea" stroke="#9a6282" stroke-width="2"/>
    </g>
    
<circle cx="160" cy="104.0" r="4.2" fill="#ffe28d" stroke="#c7a75b" stroke-width="1.2"/>

    <g transform="translate(128 108) rotate(0.0)" opacity="1.0" filter="url(#paint)">
      <path d="M0 0 C 4.6 -2.7, 4.2 -12.9, 0 -15.2
               C -4.2 -12.9, -4.6 -2.7, 0 0 Z"
            fill="#fbe0ea" stroke="#9a6282" stroke-width="2"/>
    </g>
    

    <g transform="translate(128 108) rotate(72.0)" opacity="1.0" filter="url(#paint)">
      <path d="M0 0 C 4.6 -2.7, 4.2 -12.9, 0 -15.2
               C -4.2 -12.9, -4.6 -2.7, 0 0 Z"
            fill="#fbe0ea" stroke="#9a6282" stroke-width="2"/>
    </g>
    

    <g transform="translate(128 108) rotate(144.0)" opacity="1.0" filter="url(#paint)">
      <path d="M0 0 C 4.6 -2.7, 4.2 -12.9, 0 -15.2
               C -4.2 -12.9, -4.6 -2.7, 0 0 Z"
            fill="#fbe0ea" stroke="#9a6282" stroke-width="2"/>
    </g>
    

    <g transform="translate(128 108) rotate(216.0)" opacity="1.0" filter="url(#paint)">
      <path d="M0 0 C 4.6 -2.7, 4.2 -12.9, 0 -15.2
               C -4.2 -12.9, -4.6 -2.7, 0 0 Z"
            fill="#fbe0ea" stroke="#9a6282" stroke-width="2"/>
    </g>
    

    <g transform="translate(128 108) rotate(288.0)" opacity="1.0" filter="url(#paint)">
      <path d="M0 0 C 4.6 -2.7, 4.2 -12.9, 0 -15.2
               C -4.2 -12.9, -4.6 -2.7, 0 0 Z"
            fill="#fbe0ea" stroke="#9a6282" stroke-width="2"/>
    </g>
    
<circle cx="128" cy="98.5" r="4.0" fill="#ffe28d" stroke="#c7a75b" stroke-width="1.2"/>

    <g opacity="0.9">
      <path d="M 92 82 L 92 90 M 88 86 L 96 86" stroke="#ffe79a" stroke-width="1.6" stroke-linecap="round"/>
      <path d="M 89.2 83.2 L 94.8 88.8 M 94.8 83.2 L 89.2 88.8" stroke="#ffe79a" stroke-width="1.1" stroke-linecap="round" opacity="0.65"/>
    </g>
    

    <g opacity="0.9">
      <path d="M 166 75.4 L 166 82.6 M 162.4 79 L 169.6 79" stroke="#ffe79a" stroke-width="1.4400000000000002" stroke-linecap="round"/>
      <path d="M 163.5 76.5 L 168.5 81.5 M 168.5 76.5 L 163.5 81.5" stroke="#ffe79a" stroke-width="0.9900000000000001" stroke-linecap="round" opacity="0.65"/>
    </g>
    

    <g opacity="0.9">
      <path d="M 180 119.8 L 180 126.2 M 176.8 123 L 183.2 123" stroke="#ffe79a" stroke-width="1.2800000000000002" stroke-linecap="round"/>
      <path d="M 177.8 120.8 L 182.2 125.2 M 182.2 120.8 L 177.8 125.2" stroke="#ffe79a" stroke-width="0.8800000000000001" stroke-linecap="round" opacity="0.65"/>
    </g>
    

    <g opacity="0.9">
      <path d="M 81 129.8 L 81 136.2 M 77.8 133 L 84.2 133" stroke="#ffe79a" stroke-width="1.2800000000000002" stroke-linecap="round"/>
      <path d="M 78.8 130.8 L 83.2 135.2 M 83.2 130.8 L 78.8 135.2" stroke="#ffe79a" stroke-width="0.8800000000000001" stroke-linecap="round" opacity="0.65"/>
    </g>
    
    </svg>