<svg xmlns="http://www.w3.org/2000/svg" viewBox="0 0 512 384" width="512" height="384" focusable="false" aria-hidden="true">
        <title>Garden Day</title><defs>
          <linearGradient id="bg_verdant_dawn_default_gentle_rain__skyDay" x1="0" y1="0" x2="0" y2="1">
            <stop offset="0%" stop-color="#d9f1ff" />
            <stop offset="62%" stop-color="#f8f4ea" />
            <stop offset="100%" stop-color="#eef7d9" />
          </linearGradient>
          <linearGradient id="bg_verdant_dawn_default_gentle_rain__hill1" x1="0" y1="0" x2="0" y2="1">
            <stop offset="0%" stop-color="#a4ca8f" />
            <stop offset="100%" stop-color="#6f9866" />
          </linearGradient>
          <filter id="bg_verdant_dawn_default_gentle_rain__paperTex">
            <feTurbulence type="fractalNoise" baseFrequency="0.015" numOctaves="2" seed="4" />
          </filter>
        </defs>
        <rect width="512" height="384" fill="url(#bg_verdant_dawn_default_gentle_rain__skyDay)" />
        <circle cx="411" cy="72" r="34" fill="#fff1b7" opacity="0.9" />
        <path d="M0 205 C84 168, 152 173, 244 201 C306 220, 381 220, 512 183 L512 384 L0 384 Z" fill="#cfe0b7" />
        <path d="M0 240 C117 212, 204 219, 305 248 C376 270, 433 267, 512 236 L512 384 L0 384 Z" fill="url(#bg_verdant_dawn_default_gentle_rain__hill1)" />
        <path d="M0 282 C99 260, 172 268, 251 300 C320 326, 408 324, 512 286 L512 384 L0 384 Z" fill="#597f4f" />
        <ellipse cx="256" cy="301" rx="198" ry="33" fill="#41653d" opacity="0.15" />
        <g opacity="0.18" filter="url(#bg_verdant_dawn_default_gentle_rain__paperTex)"><rect width="512" height="384" fill="#ffffff" /></g>
        <g id="default_gentle_rain__generated_overlay"><line x1="40" y1="90" x2="26" y2="210" stroke="#b6c9dd" stroke-width="2" stroke-linecap="round" opacity="0.35" /><line x1="85" y1="90" x2="71" y2="210" stroke="#b6c9dd" stroke-width="2" stroke-linecap="round" opacity="0.35" /><line x1="130" y1="90" x2="116" y2="210" stroke="#b6c9dd" stroke-width="2" stroke-linecap="round" opacity="0.35" /><line x1="175" y1="90" x2="161" y2="210" stroke="#b6c9dd" stroke-width="2" stroke-linecap="round" opacity="0.35" /><line x1="220" y1="90" x2="206" y2="210" stroke="#b6c9dd" stroke-width="2" stroke-linecap="round" opacity="0.35" /><line x1="265" y1="90" x2="251" y2="210" stroke="#b6c9dd" stroke-width="2" stroke-linecap="round" opacity="0.35" /><line x1="310" y1="90" x2="296" y2="210" stroke="#b6c9dd" stroke-width="2" stroke-linecap="round" opacity="0.35" /><line x1="355" y1="90" x2="341" y2="210" stroke="#b6c9dd" stroke-width="2" stroke-linecap="round" opacity="0.35" /><line x1="400" y1="90" x2="386" y2="210" stroke="#b6c9dd" stroke-width="2" stroke-linecap="round" opacity="0.35" /><line x1="445" y1="90" x2="431" y2="210" stroke="#b6c9dd" stroke-width="2" stroke-linecap="round" opacity="0.35" /></g></svg>
