<svg xmlns="http://www.w3.org/2000/svg" viewBox="0 0 256 256">
    
    <defs>
      <linearGradient id="potBody" x1="0" y1="0" x2="1" y2="1">
        <stop offset="0%" stop-color="#c97b4a"/>
        <stop offset="100%" stop-color="#8f5334"/>
      </linearGradient>
      <linearGradient id="potLip" x1="0" y1="0" x2="1" y2="1">
        <stop offset="0%" stop-color="#e0a071"/>
        <stop offset="100%" stop-color="#a8623f"/>
      </linearGradient>
      <linearGradient id="soilGrad" x1="0" y1="0" x2="0" y2="1">
        <stop offset="0%" stop-color="#6c4c3b"/>
        <stop offset="100%" stop-color="#4b3025"/>
      </linearGradient>
      <linearGradient id="leafGrad" x1="0" y1="0" x2="0.8" y2="1">
        <stop offset="0%" stop-color="#8ecf7a"/>
        <stop offset="100%" stop-color="#447a42"/>
      </linearGradient>
      <linearGradient id="leafGradDark" x1="0" y1="0" x2="0.8" y2="1">
        <stop offset="0%" stop-color="#6cab67"/>
        <stop offset="100%" stop-color="#2e5b31"/>
      </linearGradient>
      <linearGradient id="stemGrad" x1="0" y1="0" x2="0" y2="1">
        <stop offset="0%" stop-color="#6b8e52"/>
        <stop offset="100%" stop-color="#3d5a31"/>
      </linearGradient>
      <linearGradient id="goldGlow" x1="0" y1="0" x2="1" y2="1">
        <stop offset="0%" stop-color="#fff6c7"/>
        <stop offset="100%" stop-color="#f4c85d"/>
      </linearGradient>
      <filter id="paint" x="-20%" y="-20%" width="140%" height="140%">
        <feTurbulence type="fractalNoise" baseFrequency="0.9" numOctaves="1" seed="7" result="noise"/>
        <feDisplacementMap in="SourceGraphic" in2="noise" scale="0.9" xChannelSelector="R" yChannelSelector="G"/>
      </filter>
      <filter id="softShadow" x="-40%" y="-40%" width="180%" height="180%">
        <feDropShadow dx="0" dy="4" stdDeviation="4" flood-color="#2a2019" flood-opacity="0.18"/>
      </filter>
      <filter id="rareGlow" x="-60%" y="-60%" width="220%" height="220%">
        <feGaussianBlur stdDeviation="6" result="blur"/>
      </filter>
      <radialGradient id="paperVignette" cx="50%" cy="35%" r="90%">
        <stop offset="0%" stop-color="#ffffff" stop-opacity="0.05"/>
        <stop offset="100%" stop-color="#9bb39a" stop-opacity="0.08"/>
      </radialGradient>
      
    </defs>
    
    
    
    <g opacity="0.45">
      <ellipse cx="128" cy="126" rx="62" ry="76" fill="url(#goldGlow)" filter="url(#rareGlow)"/>
    </g>
    

    <g filter="url(#softShadow)">
      <ellipse cx="128" cy="232" rx="48" ry="10" fill="#2b241f" opacity="0.12"/>
      <path d="M82 185 C88 178, 168 178, 174 185 L166 228 C165 234, 91 234, 90 228 Z" fill="url(#potBody)" stroke="#7a4730" stroke-width="2"/>
      <ellipse cx="128" cy="185" rx="47" ry="10" fill="url(#potLip)" stroke="#8c5437" stroke-width="2"/>
      <ellipse cx="128" cy="188" rx="39" ry="6.8" fill="url(#soilGrad)" opacity="0.96"/>
      <path d="M94 189 C107 185, 119 193, 130 189 C142 185, 152 191, 163 188" stroke="#7a5c4b" stroke-width="1.2" opacity="0.45" fill="none"/>
    </g>
    
<rect x="106" y="94" width="34" height="94" rx="15" fill="url(#leafGradDark)" stroke="#254127" stroke-width="2.6" filter="url(#paint)"/>
<rect x="76" y="120" width="24" height="56" rx="11" fill="url(#leafGrad)" stroke="#305134" stroke-width="2.2" filter="url(#paint)"/>
<rect x="152" y="118" width="22" height="56" rx="11" fill="url(#leafGrad)" stroke="#305134" stroke-width="2.2" filter="url(#paint)"/>
<rect x="160" y="92" width="14" height="28" rx="7" fill="url(#leafGrad)" stroke="#305134" stroke-width="2.2" filter="url(#paint)"/>

    <g transform="translate(123 88) rotate(0.0)" opacity="1.0" filter="url(#paint)">
      <path d="M0 0 C 4.8 -2.9, 4.4 -13.6, 0 -16.0
               C -4.4 -13.6, -4.8 -2.9, 0 0 Z"
            fill="#ffe2f0" stroke="#9a6282" stroke-width="2"/>
    </g>
    

    <g transform="translate(123 88) rotate(51.42857142857143)" opacity="1.0" filter="url(#paint)">
      <path d="M0 0 C 4.8 -2.9, 4.4 -13.6, 0 -16.0
               C -4.4 -13.6, -4.8 -2.9, 0 0 Z"
            fill="#ffe2f0" stroke="#9a6282" stroke-width="2"/>
    </g>
    

    <g transform="translate(123 88) rotate(102.85714285714286)" opacity="1.0" filter="url(#paint)">
      <path d="M0 0 C 4.8 -2.9, 4.4 -13.6, 0 -16.0
               C -4.4 -13.6, -4.8 -2.9, 0 0 Z"
            fill="#ffe2f0" stroke="#9a6282" stroke-width="2"/>
    </g>
    

    <g transform="translate(123 88) rotate(154.28571428571428)" opacity="1.0" filter="url(#paint)">
      <path d="M0 0 C 4.8 -2.9, 4.4 -13.6, 0 -16.0
               C -4.4 -13.6, -4.8 -2.9, 0 0 Z"
            fill="#ffe2f0" stroke="#9a6282" stroke-width="2"/>
    </g>
    

    <g transform="translate(123 88) rotate(205.71428571428572)" opacity="1.0" filter="url(#paint)">
      <path d="M0 0 C 4.8 -2.9, 4.4 -13.6, 0 -16.0
               C -4.4 -13.6, -4.8 -2.9, 0 0 Z"
            fill="#ffe2f0" stroke="#9a6282" stroke-width="2"/>
    </g>
    

    <g transform="translate(123 88) rotate(257.14285714285717)" opacity="1.0" filter="url(#paint)">
      <path d="M0 0 C 4.8 -2.9, 4.4 -13.6, 0 -16.0
               C -4.4 -13.6, -4.8 -2.9, 0 0 Z"
            fill="#ffe2f0" stroke="#9a6282" stroke-width="2"/>
    </g>
    

    <g transform="translate(123 88) rotate(308.57142857142856)" opacity="1.0" filter="url(#paint)">
      <path d="M0 0 C 4.8 -2.9, 4.4 -13.6, 0 -16.0
               C -4.4 -13.6, -4.8 -2.9, 0 0 Z"
            fill="#ffe2f0" stroke="#9a6282" stroke-width="2"/>
    </g>
    
<circle cx="123" cy="78.0" r="4.2" fill="#ffdd83" stroke="#c7a75b" stroke-width="1.2"/>

    <g transform="translate(151 116) rotate(0.0)" opacity="1.0" filter="url(#paint)">
      <path d="M0 0 C 4.8 -2.9, 4.4 -13.6, 0 -16.0
               C -4.4 -13.6, -4.8 -2.9, 0 0 Z"
            fill="#ffe2f0" stroke="#9a6282" stroke-width="2"/>
    </g>
    

    <g transform="translate(151 116) rotate(51.42857142857143)" opacity="1.0" filter="url(#paint)">
      <path d="M0 0 C 4.8 -2.9, 4.4 -13.6, 0 -16.0
               C -4.4 -13.6, -4.8 -2.9, 0 0 Z"
            fill="#ffe2f0" stroke="#9a6282" stroke-width="2"/>
    </g>
    

    <g transform="translate(151 116) rotate(102.85714285714286)" opacity="1.0" filter="url(#paint)">
      <path d="M0 0 C 4.8 -2.9, 4.4 -13.6, 0 -16.0
               C -4.4 -13.6, -4.8 -2.9, 0 0 Z"
            fill="#ffe2f0" stroke="#9a6282" stroke-width="2"/>
    </g>
    

    <g transform="translate(151 116) rotate(154.28571428571428)" opacity="1.0" filter="url(#paint)">
      <path d="M0 0 C 4.8 -2.9, 4.4 -13.6, 0 -16.0
               C -4.4 -13.6, -4.8 -2.9, 0 0 Z"
            fill="#ffe2f0" stroke="#9a6282" stroke-width="2"/>
    </g>
    

    <g transform="translate(151 116) rotate(205.71428571428572)" opacity="1.0" filter="url(#paint)">
      <path d="M0 0 C 4.8 -2.9, 4.4 -13.6, 0 -16.0
               C -4.4 -13.6, -4.8 -2.9, 0 0 Z"
            fill="#ffe2f0" stroke="#9a6282" stroke-width="2"/>
    </g>
    

    <g transform="translate(151 116) rotate(257.14285714285717)" opacity="1.0" filter="url(#paint)">
      <path d="M0 0 C 4.8 -2.9, 4.4 -13.6, 0 -16.0
               C -4.4 -13.6, -4.8 -2.9, 0 0 Z"
            fill="#ffe2f0" stroke="#9a6282" stroke-width="2"/>
    </g>
    

    <g transform="translate(151 116) rotate(308.57142857142856)" opacity="1.0" filter="url(#paint)">
      <path d="M0 0 C 4.8 -2.9, 4.4 -13.6, 0 -16.0
               C -4.4 -13.6, -4.8 -2.9, 0 0 Z"
            fill="#ffe2f0" stroke="#9a6282" stroke-width="2"/>
    </g>
    
<circle cx="151" cy="106.0" r="4.2" fill="#ffdd83" stroke="#c7a75b" stroke-width="1.2"/>

    <g transform="translate(91 116) rotate(0.0)" opacity="1.0" filter="url(#paint)">
      <path d="M0 0 C 4.8 -2.9, 4.4 -13.6, 0 -16.0
               C -4.4 -13.6, -4.8 -2.9, 0 0 Z"
            fill="#ffe2f0" stroke="#9a6282" stroke-width="2"/>
    </g>
    

    <g transform="translate(91 116) rotate(51.42857142857143)" opacity="1.0" filter="url(#paint)">
      <path d="M0 0 C 4.8 -2.9, 4.4 -13.6, 0 -16.0
               C -4.4 -13.6, -4.8 -2.9, 0 0 Z"
            fill="#ffe2f0" stroke="#9a6282" stroke-width="2"/>
    </g>
    

    <g transform="translate(91 116) rotate(102.85714285714286)" opacity="1.0" filter="url(#paint)">
      <path d="M0 0 C 4.8 -2.9, 4.4 -13.6, 0 -16.0
               C -4.4 -13.6, -4.8 -2.9, 0 0 Z"
            fill="#ffe2f0" stroke="#9a6282" stroke-width="2"/>
    </g>
    

    <g transform="translate(91 116) rotate(154.28571428571428)" opacity="1.0" filter="url(#paint)">
      <path d="M0 0 C 4.8 -2.9, 4.4 -13.6, 0 -16.0
               C -4.4 -13.6, -4.8 -2.9, 0 0 Z"
            fill="#ffe2f0" stroke="#9a6282" stroke-width="2"/>
    </g>
    

    <g transform="translate(91 116) rotate(205.71428571428572)" opacity="1.0" filter="url(#paint)">
      <path d="M0 0 C 4.8 -2.9, 4.4 -13.6, 0 -16.0
               C -4.4 -13.6, -4.8 -2.9, 0 0 Z"
            fill="#ffe2f0" stroke="#9a6282" stroke-width="2"/>
    </g>
    

    <g transform="translate(91 116) rotate(257.14285714285717)" opacity="1.0" filter="url(#paint)">
      <path d="M0 0 C 4.8 -2.9, 4.4 -13.6, 0 -16.0
               C -4.4 -13.6, -4.8 -2.9, 0 0 Z"
            fill="#ffe2f0" stroke="#9a6282" stroke-width="2"/>
    </g>
    

    <g transform="translate(91 116) rotate(308.57142857142856)" opacity="1.0" filter="url(#paint)">
      <path d="M0 0 C 4.8 -2.9, 4.4 -13.6, 0 -16.0
               C -4.4 -13.6, -4.8 -2.9, 0 0 Z"
            fill="#ffe2f0" stroke="#9a6282" stroke-width="2"/>
    </g>
    
<circle cx="91" cy="106.0" r="4.2" fill="#ffdd83" stroke="#c7a75b" stroke-width="1.2"/>

    <g transform="translate(165 89) rotate(0.0)" opacity="1.0" filter="url(#paint)">
      <path d="M0 0 C 4.8 -2.9, 4.4 -13.6, 0 -16.0
               C -4.4 -13.6, -4.8 -2.9, 0 0 Z"
            fill="#ffe2f0" stroke="#9a6282" stroke-width="2"/>
    </g>
    

    <g transform="translate(165 89) rotate(51.42857142857143)" opacity="1.0" filter="url(#paint)">
      <path d="M0 0 C 4.8 -2.9, 4.4 -13.6, 0 -16.0
               C -4.4 -13.6, -4.8 -2.9, 0 0 Z"
            fill="#ffe2f0" stroke="#9a6282" stroke-width="2"/>
    </g>
    

    <g transform="translate(165 89) rotate(102.85714285714286)" opacity="1.0" filter="url(#paint)">
      <path d="M0 0 C 4.8 -2.9, 4.4 -13.6, 0 -16.0
               C -4.4 -13.6, -4.8 -2.9, 0 0 Z"
            fill="#ffe2f0" stroke="#9a6282" stroke-width="2"/>
    </g>
    

    <g transform="translate(165 89) rotate(154.28571428571428)" opacity="1.0" filter="url(#paint)">
      <path d="M0 0 C 4.8 -2.9, 4.4 -13.6, 0 -16.0
               C -4.4 -13.6, -4.8 -2.9, 0 0 Z"
            fill="#ffe2f0" stroke="#9a6282" stroke-width="2"/>
    </g>
    

    <g transform="translate(165 89) rotate(205.71428571428572)" opacity="1.0" filter="url(#paint)">
      <path d="M0 0 C 4.8 -2.9, 4.4 -13.6, 0 -16.0
               C -4.4 -13.6, -4.8 -2.9, 0 0 Z"
            fill="#ffe2f0" stroke="#9a6282" stroke-width="2"/>
    </g>
    

    <g transform="translate(165 89) rotate(257.14285714285717)" opacity="1.0" filter="url(#paint)">
      <path d="M0 0 C 4.8 -2.9, 4.4 -13.6, 0 -16.0
               C -4.4 -13.6, -4.8 -2.9, 0 0 Z"
            fill="#ffe2f0" stroke="#9a6282" stroke-width="2"/>
    </g>
    

    <g transform="translate(165 89) rotate(308.57142857142856)" opacity="1.0" filter="url(#paint)">
      <path d="M0 0 C 4.8 -2.9, 4.4 -13.6, 0 -16.0
               C -4.4 -13.6, -4.8 -2.9, 0 0 Z"
            fill="#ffe2f0" stroke="#9a6282" stroke-width="2"/>
    </g>
    
<circle cx="165" cy="79.0" r="4.2" fill="#ffdd83" stroke="#c7a75b" stroke-width="1.2"/>

    <g transform="translate(110 99) rotate(0.0)" opacity="1.0" filter="url(#paint)">
      <path d="M0 0 C 4.8 -2.9, 4.4 -13.6, 0 -16.0
               C -4.4 -13.6, -4.8 -2.9, 0 0 Z"
            fill="#ffe2f0" stroke="#9a6282" stroke-width="2"/>
    </g>
    

    <g transform="translate(110 99) rotate(51.42857142857143)" opacity="1.0" filter="url(#paint)">
      <path d="M0 0 C 4.8 -2.9, 4.4 -13.6, 0 -16.0
               C -4.4 -13.6, -4.8 -2.9, 0 0 Z"
            fill="#ffe2f0" stroke="#9a6282" stroke-width="2"/>
    </g>
    

    <g transform="translate(110 99) rotate(102.85714285714286)" opacity="1.0" filter="url(#paint)">
      <path d="M0 0 C 4.8 -2.9, 4.4 -13.6, 0 -16.0
               C -4.4 -13.6, -4.8 -2.9, 0 0 Z"
            fill="#ffe2f0" stroke="#9a6282" stroke-width="2"/>
    </g>
    

    <g transform="translate(110 99) rotate(154.28571428571428)" opacity="1.0" filter="url(#paint)">
      <path d="M0 0 C 4.8 -2.9, 4.4 -13.6, 0 -16.0
               C -4.4 -13.6, -4.8 -2.9, 0 0 Z"
            fill="#ffe2f0" stroke="#9a6282" stroke-width="2"/>
    </g>
    

    <g transform="translate(110 99) rotate(205.71428571428572)" opacity="1.0" filter="url(#paint)">
      <path d="M0 0 C 4.8 -2.9, 4.4 -13.6, 0 -16.0
               C -4.4 -13.6, -4.8 -2.9, 0 0 Z"
            fill="#ffe2f0" stroke="#9a6282" stroke-width="2"/>
    </g>
    

    <g transform="translate(110 99) rotate(257.14285714285717)" opacity="1.0" filter="url(#paint)">
      <path d="M0 0 C 4.8 -2.9, 4.4 -13.6, 0 -16.0
               C -4.4 -13.6, -4.8 -2.9, 0 0 Z"
            fill="#ffe2f0" stroke="#9a6282" stroke-width="2"/>
    </g>
    

    <g transform="translate(110 99) rotate(308.57142857142856)" opacity="1.0" filter="url(#paint)">
      <path d="M0 0 C 4.8 -2.9, 4.4 -13.6, 0 -16.0
               C -4.4 -13.6, -4.8 -2.9, 0 0 Z"
            fill="#ffe2f0" stroke="#9a6282" stroke-width="2"/>
    </g>
    
<circle cx="110" cy="89.0" r="4.2" fill="#ffdd83" stroke="#c7a75b" stroke-width="1.2"/>

    <g opacity="0.9">
      <path d="M 76 100.8 L 76 107.2 M 72.8 104 L 79.2 104" stroke="#ffe79a" stroke-width="1.2800000000000002" stroke-linecap="round"/>
      <path d="M 73.8 101.8 L 78.2 106.2 M 78.2 101.8 L 73.8 106.2" stroke="#ffe79a" stroke-width="0.8800000000000001" stroke-linecap="round" opacity="0.65"/>
    </g>
    

    <g opacity="0.9">
      <path d="M 184 105.8 L 184 112.2 M 180.8 109 L 187.2 109" stroke="#ffe79a" stroke-width="1.2800000000000002" stroke-linecap="round"/>
      <path d="M 181.8 106.8 L 186.2 111.2 M 186.2 106.8 L 181.8 111.2" stroke="#ffe79a" stroke-width="0.8800000000000001" stroke-linecap="round" opacity="0.65"/>
    </g>
    

    <g opacity="0.9">
      <path d="M 128 74.4 L 128 81.6 M 124.4 78 L 131.6 78" stroke="#ffe79a" stroke-width="1.4400000000000002" stroke-linecap="round"/>
      <path d="M 125.5 75.5 L 130.5 80.5 M 130.5 75.5 L 125.5 80.5" stroke="#ffe79a" stroke-width="0.9900000000000001" stroke-linecap="round" opacity="0.65"/>
    </g>
    
    </svg>